<svg xmlns="http://www.w3.org/2000/svg" width="664.687" height="451.296" viewBox="0 0 664.687 451.296">
    <defs>
        <style>
            .cls-1{fill:#ececec}.cls-2{fill:#fafafa}.cls-3{fill:#e1e1e1}.cls-4{fill:#f5f5f5}.cls-5{fill:#1a2e35}.cls-21,.cls-6{fill:#fff}.cls-7{fill:#375a64}.cls-8{fill:#f8feff;stroke:#002226}.cls-13,.cls-8{stroke-width:.769px}.cls-9{fill:#002226}.cls-10,.cls-12{fill:none}.cls-11{fill:#efefef}.cls-12{stroke:#efefef;stroke-width:.653px}.cls-12,.cls-21{stroke-miterlimit:10}.cls-13{fill:#dcf5f8;stroke:#000}.cls-14{opacity:.3}.cls-21{stroke:#263238}.cls-17{fill:#263238}.cls-20{opacity:.7}
        </style>
    </defs>
    <g id="Group_4670" transform="translate(-1030.472 -360.5)">
        <g id="Group_4669" transform="translate(1031 361.276)">
            <path id="Path_2477" d="M967.006 282.313a1.4 1.4 0 0 0-.684 1.828l3.139 6.736a1.394 1.394 0 0 0 1.841.685l23.711-11.076-2.147 22.456a1.4 1.4 0 0 0 .459 1.172 6.1 6.1 0 0 0 3.684 1.395 4.545 4.545 0 0 0 1.1-.139c1.924-.5 3.417-2.219 4.435-5.148l9.332-27.63 18.48-8.621c5.44-2.538 8.243-7.684 6.36-11.7a7.059 7.059 0 0 0-5.453-3.808 12.926 12.926 0 0 0-7.615 1.172l-21.327 10-22.93-8.968c-2.888-1.088-5.175-1.06-6.779.1a5.683 5.683 0 0 0-2.078 4.5 1.4 1.4 0 0 0 .6 1.1l15.44 10.614-8.842 4.185-14.827-3.766a1.4 1.4 0 0 0-1.548.669l-3.695 6.652a1.4 1.4 0 0 0 .725 1.968l10.976 4.533z" class="cls-1" transform="translate(-625.631 -221.359)"/>
            <g id="surface1" transform="translate(106.299 372.262)">
                <path id="Path_2478" d="M814.019 608.274h12.3v6.152h-12.3z" transform="translate(-737.124 -580.592)"/>
                <path id="Path_2479" d="M921.719 600.044l-20.893-2.983a105.333 105.333 0 0 0-11.839-6.274 103.588 103.588 0 0 0-42.852-9.227h-3.63a104.555 104.555 0 0 0-49.924 12.731l-10.544 5.752a72.677 72.677 0 0 0-35.171 9.534 14.042 14.042 0 0 0-7.057 12.16V640a3.076 3.076 0 0 0 3.076 3.077h10.328a18.387 18.387 0 0 0 34.7 0H870.1a18.387 18.387 0 0 0 34.7 0h1.1a3.09 3.09 0 0 0 1.144-.219l9.962-4A11.632 11.632 0 0 0 924.36 628v-24.911a3.079 3.079 0 0 0-2.641-3.045zm-139.1 39.34a12.3 12.3 0 1 1 .25-2.46 12.3 12.3 0 0 1-.248 2.46zm55.615-39.37h-43.3l.594-.323a98.336 98.336 0 0 1 42.708-11.845zm6.151-12.3h1.742a97.356 97.356 0 0 1 36.191 6.934l-5.371 5.37h-32.56zm55.115 51.67a12.3 12.3 0 1 1 .25-2.46 12.3 12.3 0 0 1-.25 2.46z" class="cls-1" transform="translate(-739.81 -581.559)"/>
            </g>
            <g id="Group_4668" transform="translate(151.382)">
                <g id="Group_4430" transform="translate(0 173.452)">
                    <g id="Group_4397">
                        <rect id="Rectangle_2506" width="92.921" height="177.317" class="cls-1" rx="5.213" transform="rotate(-26.876 87.903 21.003)"/>
                    </g>
                    <g id="Group_4398" transform="translate(27.578 49.36)">
                        <circle id="Ellipse_63" cx="6.791" cy="6.791" r="6.791" class="cls-2" transform="rotate(-33.922 12.425 3.79)"/>
                    </g>
                    <g id="Group_4399" transform="translate(63.513 32.193)">
                        <circle id="Ellipse_64" cx="6.791" cy="6.791" r="6.791" class="cls-2" transform="rotate(-20.395 13.156 2.366)"/>
                    </g>
                    <g id="Group_4400" transform="translate(46.815 84.756)">
                        <path id="Path_2480" d="M841.346 475.211a6.791 6.791 0 1 1-9.127-2.987 6.789 6.789 0 0 1 9.127 2.987z" class="cls-2" transform="translate(-828.497 -471.489)"/>
                    </g>
                    <g id="Group_4401" transform="translate(81.832 66.671)">
                        <circle id="Ellipse_65" cx="6.791" cy="6.791" r="6.791" class="cls-2" transform="rotate(-88.059 7.02 6.787)"/>
                    </g>
                    <g id="Group_4402" transform="translate(63.419 117.52)">
                        <path id="Path_2481" d="M857.371 506.831a6.791 6.791 0 1 1-9.127-2.987 6.791 6.791 0 0 1 9.127 2.987z" class="cls-2" transform="translate(-844.522 -503.108)"/>
                    </g>
                    <g id="Group_4403" transform="translate(98.661 99.66)">
                        <path id="Path_2482" d="M891.382 489.594a6.791 6.791 0 1 1-9.127-2.987 6.791 6.791 0 0 1 9.127 2.987z" class="cls-2" transform="translate(-878.532 -485.872)"/>
                    </g>
                    <g id="Group_4404" transform="translate(80.024 150.284)">
                        <path id="Path_2483" d="M873.4 538.45a6.791 6.791 0 1 1-9.128-2.987 6.791 6.791 0 0 1 9.128 2.987z" class="cls-2" transform="translate(-860.546 -534.728)"/>
                    </g>
                    <g id="Group_4405" transform="translate(115.266 132.423)">
                        <path id="Path_2484" d="M907.406 521.213a6.791 6.791 0 1 1-9.127-2.987 6.79 6.79 0 0 1 9.127 2.987z" class="cls-2" transform="translate(-894.557 -517.491)"/>
                    </g>
                    <g id="Group_4407" transform="translate(34.798 52.615)">
                        <g id="Group_4406">
                            <path id="Path_2485" d="M821.043 440.471a75.816 75.816 0 0 1-4.127 12.1 75.825 75.825 0 0 1 4.127-12.1z" class="cls-3" transform="translate(-816.9 -440.47)"/>
                        </g>
                    </g>
                    <g id="Group_4409" transform="translate(69.267 34.828)">
                        <g id="Group_4408">
                            <path id="Path_2486" d="M854.308 423.306a75.787 75.787 0 0 1-4.127 12.1 75.76 75.76 0 0 1 4.127-12.1z" class="cls-3" transform="translate(-850.165 -423.305)"/>
                        </g>
                    </g>
                    <g id="Group_4411" transform="translate(52.413 85.332)">
                        <g id="Group_4410">
                            <path id="Path_2487" d="M837.373 472.045a79.463 79.463 0 0 1-3.454 12.624 79.573 79.573 0 0 1 3.454-12.624z" class="cls-3" transform="translate(-833.9 -472.045)"/>
                        </g>
                    </g>
                    <g id="Group_4413" transform="translate(87.78 67.455)">
                        <g id="Group_4412">
                            <path id="Path_2488" d="M870.922 454.793a73.267 73.267 0 0 1-2.866 12.242 73.161 73.161 0 0 1 2.866-12.242z" class="cls-3" transform="translate(-868.032 -454.793)"/>
                        </g>
                    </g>
                    <g id="Group_4415" transform="translate(68.144 118.108)">
                        <g id="Group_4414">
                            <path id="Path_2489" d="M852.3 503.676a66.536 66.536 0 0 1-3.2 11.548 66.714 66.714 0 0 1 3.2-11.548z" class="cls-3" transform="translate(-849.081 -503.676)"/>
                        </g>
                    </g>
                    <g id="Group_4417" transform="translate(103.46 100.7)">
                        <g id="Group_4416">
                            <path id="Path_2490" d="M887.3 486.877a68.581 68.581 0 0 1-4.117 11.443 68.783 68.783 0 0 1 4.117-11.443z" class="cls-3" transform="translate(-883.164 -486.876)"/>
                        </g>
                    </g>
                    <g id="Group_4419" transform="translate(84.559 151.213)">
                        <g id="Group_4418">
                            <path id="Path_2491" d="M869.412 535.625a75.041 75.041 0 0 1-4.474 11.907 74.9 74.9 0 0 1 4.474-11.907z" class="cls-3" transform="translate(-864.923 -535.624)"/>
                        </g>
                    </g>
                    <g id="Group_4421" transform="translate(120.643 132.256)">
                        <g id="Group_4420">
                            <path id="Path_2492" d="M903.153 517.33a88.714 88.714 0 0 1-3.386 13.423 89.045 89.045 0 0 1 3.386-13.423z" class="cls-3" transform="translate(-899.747 -517.33)"/>
                        </g>
                    </g>
                    <g id="Group_4423" transform="translate(92.4 153.157)">
                        <g id="Group_4422">
                            <path id="Path_2493" d="M920.877 537.5c.067.133-10.71 5.73-24.07 12.5s-24.25 12.154-24.317 12.021 10.709-5.729 24.073-12.5 24.247-12.151 24.314-12.021z" class="cls-3" transform="translate(-872.49 -537.501)"/>
                        </g>
                    </g>
                    <g id="Group_4425" transform="translate(22.469 21.883)">
                        <g id="Group_4424">
                            <path id="Path_2494" d="M853.389 410.815c.067.134-10.711 5.731-24.071 12.5S805.07 435.47 805 435.338s10.709-5.729 24.073-12.5 24.249-12.156 24.316-12.023z" class="cls-3" transform="translate(-805.002 -410.813)"/>
                        </g>
                    </g>
                    <g id="Group_4427" transform="translate(48.046 40.669)">
                        <g id="Group_4426">
                            <path id="Path_2495" d="M830 429.218a.35.35 0 0 1-.193.041.2.2 0 0 1-.077-.023l-.029-.022-.011-.013v-.007l.481-.245c.042.085-.03.208-.163.276s-.276.054-.319-.031l.482-.243v.067a.2.2 0 0 1-.027.076.352.352 0 0 1-.144.124z" class="cls-3" transform="translate(-829.685 -428.942)"/>
                        </g>
                    </g>
                    <g id="Group_4429" transform="translate(47.809 33.566)">
                        <g id="Group_4428">
                            <path id="Path_2496" d="M896.552 554.479c-.133.068-15.261-29.517-33.786-66.071s-33.441-66.253-33.309-66.321 15.258 29.511 33.789 66.077 33.439 66.247 33.306 66.315z" class="cls-3" transform="translate(-829.456 -422.087)"/>
                        </g>
                    </g>
                </g>
                <g id="Group_4446" transform="translate(273.908 5.371)">
                    <g id="Group_4432" transform="translate(25.59)">
                        <g id="Group_4431">
                            <path id="Path_2497" d="M1088.336 227.874a15.677 15.677 0 0 1 5.66 10.9 27.673 27.673 0 0 1-1.967 12.361c-2.847 7.631-9.283 14.446-15.651 19.523-5.175-7.418-4.189-17.864-3.354-23.132 1.317-8.326 8.754-22.574 15.312-19.649" class="cls-4" transform="translate(-1072.354 -227.484)"/>
                        </g>
                    </g>
                    <g id="Group_4434" transform="translate(34.072 44.951)">
                        <g id="Group_4433">
                            <path id="Path_2498" d="M1080.539 283.96a13.379 13.379 0 0 1 7.27-11.3 17.771 17.771 0 0 1 13.706-.8c2.063.685 4.184 1.865 4.956 3.9a5.72 5.72 0 0 1-1.315 5.648 11.61 11.61 0 0 1-5.188 3.065c-6.625 2.168-13.435 3.05-19.429-.51" class="cls-4" transform="translate(-1080.539 -270.866)"/>
                        </g>
                    </g>
                    <g id="Group_4437" transform="translate(21.714 52.48)">
                        <g id="Group_4436">
                            <g id="Group_4435">
                                <path id="Path_2499" d="M1068.62 299.911a26.28 26.28 0 0 1 2.175-4.925 25.034 25.034 0 0 1 3.325-4.856 54.916 54.916 0 0 1 4.923-5.228 26.79 26.79 0 0 1 11.41-6.261 19.413 19.413 0 0 1 3.936-.511 4.291 4.291 0 0 1 1.451.126c.006.166-2.069.114-5.221 1.009a28.71 28.71 0 0 0-10.966 6.316 64.65 64.65 0 0 0-4.894 5.1 27.64 27.64 0 0 0-3.4 4.621 39 39 0 0 1-2.739 4.609z" class="cls-3" transform="translate(-1068.612 -278.131)"/>
                            </g>
                        </g>
                    </g>
                    <g id="Group_4440" transform="translate(20.354 11.738)">
                        <g id="Group_4439">
                            <g id="Group_4438">
                                <path id="Path_2500" d="M1083.814 238.813a15.436 15.436 0 0 1-.393 2.7c-.31 1.724-.794 4.211-1.419 7.279-1.25 6.135-3.07 14.594-5.31 23.884s-4.508 17.648-6.275 23.657c-.883 3.005-1.627 5.428-2.174 7.092a15.625 15.625 0 0 1-.933 2.559 15.61 15.61 0 0 1 .592-2.659l1.893-7.165c1.606-6.048 3.77-14.416 6.011-23.7 2.154-9.219 4.1-17.559 5.565-23.808.69-2.924 1.262-5.353 1.7-7.216a15.753 15.753 0 0 1 .743-2.623z" class="cls-3" transform="translate(-1067.301 -238.813)"/>
                            </g>
                        </g>
                    </g>
                    <g id="Group_4442" transform="translate(0 32.37)">
                        <g id="Group_4441">
                            <path id="Path_2501" d="M1071 284.931a31.3 31.3 0 0 0-14.561-24.611c-2.148-1.326-5.029-2.35-7.07-.865s-1.95 4.561-1.288 7a26.739 26.739 0 0 0 22.688 19.119" class="cls-4" transform="translate(-1047.657 -258.724)"/>
                        </g>
                    </g>
                    <g id="Group_4445" transform="translate(9.612 41.307)">
                        <g id="Group_4444">
                            <g id="Group_4443">
                                <path id="Path_2502" d="M1056.937 267.354c.04-.049.464.234 1.2.79s1.76 1.4 2.991 2.5a35.314 35.314 0 0 1 7.966 10.109 22.165 22.165 0 0 1 2.073 6.846 21.556 21.556 0 0 1-1.054 9.629 4.3 4.3 0 0 1-.565 1.318c-.176-.052.5-1.983.873-5.2a23.139 23.139 0 0 0-.088-5.638 22.775 22.775 0 0 0-2.06-6.556 39.7 39.7 0 0 0-7.594-10.045 45.585 45.585 0 0 1-3.742-3.753z" class="cls-3" transform="translate(-1056.933 -267.349)"/>
                            </g>
                        </g>
                    </g>
                </g>
                <g id="Group_4480" transform="translate(88.373 70.345)">
                    <g id="Group_4471">
                        <g id="Group_4470">
                            <g id="Group_4469">
                                <g id="Group_4468">
                                    <g id="Group_4467">
                                        <g id="Group_4451">
                                            <g id="Group_4450">
                                                <g id="Group_4449">
                                                    <g id="Group_4448">
                                                        <g id="Group_4447">
                                                            <path id="Rectangle_2507" d="M11.55 0h241.18a11.549 11.549 0 0 1 11.549 11.549v356.166a11.549 11.549 0 0 1-11.549 11.549H11.549A11.549 11.549 0 0 1 0 367.714V11.55A11.55 11.55 0 0 1 11.55 0z" class="cls-5"/>
                                                        </g>
                                                    </g>
                                                </g>
                                            </g>
                                        </g>
                                        <g id="Group_4456" transform="translate(8.206 27.058)">
                                            <g id="Group_4455">
                                                <g id="Group_4454">
                                                    <g id="Group_4453">
                                                        <g id="Group_4452">
                                                            <path id="Rectangle_2508" d="M0 0H247.612V316.731H0z" class="cls-6"/>
                                                        </g>
                                                    </g>
                                                </g>
                                            </g>
                                        </g>
                                        <g id="Group_4461" transform="translate(121.999 350.064)">
                                            <g id="Group_4460">
                                                <g id="Group_4459">
                                                    <g id="Group_4458">
                                                        <g id="Group_4457">
                                                            <path id="Path_2503" d="M1006.621 638.165a10.14 10.14 0 1 1-10.14-10.141 10.14 10.14 0 0 1 10.14 10.141z" class="cls-7" transform="translate(-986.341 -628.024)"/>
                                                        </g>
                                                    </g>
                                                </g>
                                            </g>
                                        </g>
                                        <g id="Group_4466" transform="translate(92.341 10.923)">
                                            <g id="Group_4465">
                                                <g id="Group_4464">
                                                    <g id="Group_4463">
                                                        <g id="Group_4462">
                                                            <rect id="Rectangle_2509" width="79.597" height="4.19" class="cls-8" rx="1.215"/>
                                                        </g>
                                                    </g>
                                                </g>
                                            </g>
                                        </g>
                                    </g>
                                </g>
                            </g>
                        </g>
                    </g>
                    <g id="Group_4472" transform="translate(35.942 51.809)">
                        <path id="Rectangle_2510" d="M0 0H197.262V33.304H0z" class="cls-1"/>
                    </g>
                    <g id="Group_4473" transform="translate(80.546 290.823)">
                        <path id="Path_2504" d="M1036.153 597.109h-76.688a13.129 13.129 0 0 1-13.129-13.129 13.129 13.129 0 0 1 13.129-13.129h76.688a13.129 13.129 0 0 1 13.13 13.129 13.129 13.129 0 0 1-13.13 13.129z" class="cls-9" transform="translate(-946.336 -570.852)"/>
                    </g>
                    <g id="Group_4479" transform="translate(121.831 296.437)">
                        <g id="Group_4478">
                            <g id="Group_4477">
                                <g id="Group_4476">
                                    <g id="Group_4475">
                                        <g id="Group_4474">
                                            <path id="Path_2505" d="M986.179 584.17l2.7-2.7 5.2 4.624 10.212-9.827 2.5 2.7-13.1 12.332z" class="cls-6" transform="translate(-986.179 -576.27)"/>
                                        </g>
                                    </g>
                                </g>
                            </g>
                        </g>
                    </g>
                    <path id="Line_261" d="M0 0L39.996 0" class="cls-10" transform="translate(35.672 110.705)"/>
                    <path id="Line_262" d="M0 0L39.996 0" class="cls-10" transform="translate(35.672 146.088)"/>
                    <path id="Rectangle_2511" d="M0 0H202.354V9.176H0z" class="cls-11" transform="translate(35.672 119.794)"/>
                    <path id="Rectangle_2512" d="M0 0H202.354V9.176H0z" class="cls-11" transform="translate(35.672 155.048)"/>
                    <path id="Line_263" d="M0 0L39.996 0" class="cls-10" transform="translate(35.672 176.355)"/>
                    <path id="Line_264" d="M0 0L39.996 0" class="cls-12" transform="translate(33.984 214.097)"/>
                    <path id="Line_265" d="M0 0L39.996 0" class="cls-12" transform="translate(33.984 250.322)"/>
                    <path id="Rectangle_2513" d="M0 0H86.172V9.176H0z" class="cls-11" transform="translate(35.672 185.316)"/>
                    <path id="Rectangle_2514" d="M0 0H202.354V9.176H0z" class="cls-11" transform="translate(35.672 256.264)"/>
                    <path id="Rectangle_2515" d="M0 0H14.926V9.176H0z" class="cls-11" transform="translate(35.672 220.627)"/>
                    <path id="Rectangle_2516" d="M0 0H14.926V9.176H0z" class="cls-11" transform="translate(62.448 220.627)"/>
                    <path id="Rectangle_2517" d="M0 0H14.926V9.176H0z" class="cls-11" transform="translate(89.223 220.627)"/>
                    <path id="Rectangle_2518" d="M0 0H14.926V9.176H0z" class="cls-11" transform="translate(115.999 220.627)"/>
                    <path id="Rectangle_2519" d="M0 0H14.926V9.176H0z" class="cls-11" transform="translate(142.774 220.627)"/>
                    <path id="Rectangle_2520" d="M0 0H14.926V9.176H0z" class="cls-11" transform="translate(169.55 220.627)"/>
                    <path id="Rectangle_2521" d="M0 0H14.926V9.176H0z" class="cls-11" transform="translate(196.325 220.627)"/>
                    <path id="Rectangle_2522" d="M0 0H14.926V9.176H0z" class="cls-11" transform="translate(223.1 220.627)"/>
                    <path id="Line_266" d="M0 0L39.996 0" class="cls-10" transform="translate(151.855 176.355)"/>
                    <path id="Rectangle_2523" d="M0 0H86.172V9.176H0z" class="cls-11" transform="translate(151.855 185.316)"/>
                </g>
                <g id="Group_4631" transform="translate(343.466 109.647)">
                    <g id="Group_4510" transform="translate(54.036 312.621)">
                        <g id="Group_4492">
                            <g id="Group_4485">
                                <g id="Group_4484">
                                    <g id="Group_4483">
                                        <g id="Group_4482">
                                            <g id="Group_4481">
                                                <path id="Path_2506" d="M1184.258 630.291l-1.062 17.286s17.212 6.886 17.328 10.1l-33.589-.857.55-27z" class="cls-13" transform="translate(-1166.934 -629.818)"/>
                                            </g>
                                        </g>
                                    </g>
                                </g>
                            </g>
                            <g id="Group_4491" transform="translate(13.12 13.004)">
                                <g id="Group_4490">
                                    <g id="Group_4489">
                                        <g id="Group_4488">
                                            <g id="Group_4487">
                                                <g id="Group_4486">
                                                    <path id="Path_2507" d="M1183.091 643c-.072.147-.819-.1-1.748-.059-.929.021-1.658.314-1.74.171-.092-.121.627-.711 1.722-.741s1.85.502 1.766.629z" class="cls-5" transform="translate(-1179.595 -642.368)"/>
                                                </g>
                                            </g>
                                        </g>
                                    </g>
                                </g>
                            </g>
                        </g>
                        <g id="Group_4497" class="cls-14" transform="translate(.42 2.846)">
                            <g id="Group_4496">
                                <g id="Group_4495">
                                    <g id="Group_4494">
                                        <g id="Group_4493">
                                            <path id="Path_2508" d="M1184.029 633.615l-.185 3.081-16.5-.571.064-3.56z" transform="translate(-1167.339 -632.564)"/>
                                        </g>
                                    </g>
                                </g>
                            </g>
                        </g>
                        <g id="Group_4503" transform="translate(11.707 7.33)">
                            <g id="Group_4502">
                                <g id="Group_4501">
                                    <g id="Group_4500">
                                        <g id="Group_4499">
                                            <g id="Group_4498">
                                                <path id="Path_2509" d="M1183.291 639.705a3.144 3.144 0 0 1-1.682-.051 7.608 7.608 0 0 1-1.746-.586 7.96 7.96 0 0 1-.953-.538 2.048 2.048 0 0 1-.5-.408.715.715 0 0 1-.054-.875.9.9 0 0 1 .728-.356 2.193 2.193 0 0 1 .629.1 6.132 6.132 0 0 1 1.036.385 5.93 5.93 0 0 1 1.525 1.058c.762.742 1.011 1.362.954 1.392-.076.052-.442-.471-1.22-1.087a6.691 6.691 0 0 0-1.479-.884 6.221 6.221 0 0 0-.957-.322c-.355-.1-.657-.113-.753.044-.034.059-.039.083.032.189a1.669 1.669 0 0 0 .367.3 8.534 8.534 0 0 0 .875.531 9.267 9.267 0 0 0 1.61.665 11.794 11.794 0 0 1 1.588.443z" class="cls-5" transform="translate(-1178.233 -636.892)"/>
                                            </g>
                                        </g>
                                    </g>
                                </g>
                            </g>
                        </g>
                        <g id="Group_4509" transform="translate(16.142 5.069)">
                            <g id="Group_4508">
                                <g id="Group_4507">
                                    <g id="Group_4506">
                                        <g id="Group_4505">
                                            <g id="Group_4504">
                                                <path id="Path_2510" d="M1182.916 640.014a2.689 2.689 0 0 1-.4-1.636 5.436 5.436 0 0 1 .276-1.836 5.557 5.557 0 0 1 .454-1.01 1.393 1.393 0 0 1 1.095-.822.783.783 0 0 1 .69.487 2.247 2.247 0 0 1 .158.621 3.747 3.747 0 0 1-.028 1.134 3.88 3.88 0 0 1-.762 1.719c-.679.854-1.368 1.032-1.38.977-.053-.084.527-.387 1.051-1.21a3.859 3.859 0 0 0 .572-1.567 3.441 3.441 0 0 0-.006-.973c-.044-.358-.17-.65-.3-.616-.167-.007-.457.255-.6.536a5.642 5.642 0 0 0-.44.9 6.035 6.035 0 0 0-.368 1.67c-.081.985.079 1.603-.012 1.626z" class="cls-5" transform="translate(-1182.512 -634.71)"/>
                                            </g>
                                        </g>
                                    </g>
                                </g>
                            </g>
                        </g>
                    </g>
                    <g id="Group_4511" transform="translate(43.442 156.162)">
                        <path id="Path_2511" d="M1187.327 478.824l-30.617 10.3c.317.236 13.133 80.173 13.133 80.173l-3.861 79.655 21.191.259 9.484-83.56z" class="cls-9" transform="translate(-1156.71 -478.824)"/>
                    </g>
                    <g id="Group_4541" transform="translate(24.272 313.029)">
                        <g id="Group_4523">
                            <g id="Group_4516">
                                <g id="Group_4515">
                                    <g id="Group_4514">
                                        <g id="Group_4513">
                                            <g id="Group_4512">
                                                <path id="Path_2512" d="M1154.991 630.212l-.538 17.31s17.413 6.36 17.626 9.569l-33.6.162-.269-27.005z" class="cls-13" transform="translate(-1138.21 -630.212)"/>
                                            </g>
                                        </g>
                                    </g>
                                </g>
                            </g>
                            <g id="Group_4522" transform="translate(12.979 12.595)">
                                <g id="Group_4521">
                                    <g id="Group_4520">
                                        <g id="Group_4519">
                                            <g id="Group_4518">
                                                <g id="Group_4517">
                                                    <path id="Path_2513" d="M1154.228 642.949c-.067.15-.822-.073-1.748-.005-.93.049-1.649.363-1.736.223-.1-.118.606-.729 1.7-.793s1.865.446 1.784.575z" class="cls-5" transform="translate(-1150.736 -642.367)"/>
                                                </g>
                                            </g>
                                        </g>
                                    </g>
                                </g>
                            </g>
                        </g>
                        <g id="Group_4528" class="cls-14" transform="translate(.02 2.882)">
                            <g id="Group_4527">
                                <g id="Group_4526">
                                    <g id="Group_4525">
                                        <g id="Group_4524">
                                            <path id="Path_2514" d="M1154.88 633.539l-.092 3.085-16.515-.071-.044-3.56z" transform="translate(-1138.23 -632.993)"/>
                                        </g>
                                    </g>
                                </g>
                            </g>
                        </g>
                        <g id="Group_4534" transform="translate(11.397 6.997)">
                            <g id="Group_4533">
                                <g id="Group_4532">
                                    <g id="Group_4531">
                                        <g id="Group_4530">
                                            <g id="Group_4529">
                                                <path id="Path_2515" d="M1154.328 639.651a3.161 3.161 0 0 1-1.683 0 7.538 7.538 0 0 1-1.764-.532 8.081 8.081 0 0 1-.969-.509 2.079 2.079 0 0 1-.51-.393.717.717 0 0 1-.08-.872.9.9 0 0 1 .718-.379 2.215 2.215 0 0 1 .631.085 5.929 5.929 0 0 1 2.605 1.365c.782.718 1.051 1.329 1 1.362-.075.055-.456-.457-1.252-1.05a6.747 6.747 0 0 0-1.506-.838 6.222 6.222 0 0 0-.967-.293c-.358-.091-.66-.092-.75.066-.033.06-.037.084.038.188a1.656 1.656 0 0 0 .374.288 9.226 9.226 0 0 0 .892.5 9.321 9.321 0 0 0 1.629.616 11.631 11.631 0 0 1 1.594.396z" class="cls-5" transform="translate(-1149.209 -636.964)"/>
                                            </g>
                                        </g>
                                    </g>
                                </g>
                            </g>
                        </g>
                        <g id="Group_4540" transform="translate(15.843 4.574)">
                            <g id="Group_4539">
                                <g id="Group_4538">
                                    <g id="Group_4537">
                                        <g id="Group_4536">
                                            <g id="Group_4535">
                                                <path id="Path_2516" d="M1153.96 639.972a2.683 2.683 0 0 1-.452-1.624 5.441 5.441 0 0 1 .644-2.867 1.388 1.388 0 0 1 1.069-.854.786.786 0 0 1 .7.465 2.3 2.3 0 0 1 .176.617 3.754 3.754 0 0 1 .006 1.132 3.864 3.864 0 0 1-.71 1.742c-.653.875-1.337 1.073-1.35 1.019-.056-.083.515-.4 1.013-1.241a3.863 3.863 0 0 0 .524-1.583 3.464 3.464 0 0 0-.035-.973c-.055-.357-.189-.644-.323-.607-.167 0-.45.269-.585.554a5.563 5.563 0 0 0-.413.914 6.05 6.05 0 0 0-.317 1.681c-.036.985.142 1.599.053 1.625z" class="cls-5" transform="translate(-1153.5 -634.626)"/>
                                            </g>
                                        </g>
                                    </g>
                                </g>
                            </g>
                        </g>
                    </g>
                    <g id="Group_4542" transform="translate(14.038 163.054)">
                        <path id="Path_2517" d="M1128.333 485.476c0 6.022 7.9 166.861 7.9 166.861l20.112-1.795 3.856-64.481 2.417-10.229.943-90.271z" class="cls-9" transform="translate(-1128.333 -485.476)"/>
                    </g>
                    <g id="Group_4576" transform="translate(0 46.153)">
                        <g id="Group_4543" transform="translate(59.006 20.887)">
                            <path id="Path_2518" d="M1174.9 392.815c.275.362 15.983 25.287 15.983 25.287l17.666-18.486 9.035 13.047s-18.892 26.664-21.663 27.628-11.712-.552-11.712-.552l-12.475-16.466z" class="cls-13" transform="translate(-1171.73 -392.815)"/>
                        </g>
                        <g id="Group_4545" transform="translate(77.953 46.174)">
                            <g id="Group_4544">
                                <path id="Path_2519" d="M1190.354 422.976a7.166 7.166 0 0 1-.338-2.877 8.841 8.841 0 0 1 .2-2.881 7.162 7.162 0 0 1 .338 2.878 8.838 8.838 0 0 1-.2 2.88z" class="cls-5" transform="translate(-1190.016 -417.219)"/>
                            </g>
                        </g>
                        <g id="Group_4546" transform="translate(4.211 2.299)">
                            <path id="Path_2520" d="M1121.8 508.338c16.056 4.418 44.9-4.865 56.686-15.457l-2.353-29.147-9.414-51.214-16.153-20.812-13.7-16.831-2.715 6.7s-13.935 11.764-15.2 13.573 9.954 60.444 9.954 60.444-7.005 34.669-7.105 52.744z" class="cls-13" transform="translate(-1118.85 -374.877)"/>
                        </g>
                        <g id="Group_4547" transform="translate(22.799)">
                            <path id="Path_2521" fill="#fff" stroke="#263238" stroke-linecap="round" stroke-linejoin="round" stroke-width="1.904px" d="M1167.967 404.027s-2.06-9.94-1.893-10.248-4.644-12.05-4.644-12.05-1.611-5.373-1.611-5.354-21.964-3.717-21.964-3.717l-1.066 3.319 29.286 37 3 15.883 3.1-4.331z" transform="translate(-1136.788 -372.658)"/>
                        </g>
                        <g id="Group_4548" transform="translate(46.687 6.561)">
                            <path id="Path_2522" d="M1167.133 403.8l1.177 25.278 6.236 33.922 2.426 29.738c3.766-.844 14.5 5.367 18.113 3.793l-8.358-17.937-4.768-57.319-3.908-22.365c-.523-4.458-3.512-8.955-3.512-8.955l-11.434-6.6a49.494 49.494 0 0 1-3.264-4.363l5.4 13.79z" class="cls-13" transform="translate(-1159.842 -378.99)"/>
                        </g>
                        <g id="Group_4549" transform="translate(46.687 6.561)">
                            <path id="Path_2523" d="M1168.779 411.821l2.562-18.8-8.235-9.664-3.264-4.363 5.063 14.559z" class="cls-1" transform="translate(-1159.842 -378.99)"/>
                        </g>
                        <g id="Group_4553" transform="translate(38.42 46.174)">
                            <g id="Group_4550">
                                <path id="Path_2524" fill="#fff" stroke="#263238" stroke-linecap="round" stroke-linejoin="round" d="M1156.057 445.536l19.9-28.317 34.646 10.482L1184.4 461.6l-32.534-10.578z" transform="translate(-1151.864 -417.219)"/>
                            </g>
                            <g id="Group_4551" transform="translate(46.905 8.317)">
                                <path id="Path_2525" d="M1198.845 426.1a.857.857 0 1 1-.858-.857.859.859 0 0 1 .858.857z" class="cls-5" transform="translate(-1197.13 -425.246)"/>
                            </g>
                            <g id="Group_4552" transform="translate(33.06 4.453)">
                                <path id="Path_2526" d="M1185.484 422.374a.857.857 0 1 1-.858-.857.858.858 0 0 1 .858.857z" class="cls-5" transform="translate(-1183.769 -421.517)"/>
                            </g>
                        </g>
                        <g id="Group_4554" transform="translate(19.513 2.3)">
                            <path id="Path_2527" d="M1133.617 381.573l17.183 21.287 15.391 9.659-29.858-37.642z" class="cls-1" transform="translate(-1133.617 -374.877)"/>
                        </g>
                        <g id="Group_4555" transform="translate(.129 22.025)">
                            <path id="Path_2528" d="M1119.092 394.457s-3.6 5.678-4.176 11.483c-.225 2.277 5.431 44.888 6.07 46.805s8.146 6.709 10.384 7.668 29.552 10.064 40.734 9.9l2.4-21.086-28.754-4.792s-3.354-3.2-5.112-3.834l-2.4-23.482-3.515-18.85s-10.017-6.19-15.631-3.812z" class="cls-13" transform="translate(-1114.91 -393.913)"/>
                        </g>
                        <g id="Group_4557" transform="translate(62.538 20.123)">
                            <g id="Group_4556">
                                <path id="Path_2529" d="M1181.536 420.046c-.146.033-1.693-6.2-3.456-13.923s-3.074-14.011-2.929-14.045 1.692 6.2 3.456 13.925 3.073 14.01 2.929 14.043z" class="cls-5" transform="translate(-1175.14 -392.078)"/>
                            </g>
                        </g>
                        <g id="Group_4559" transform="translate(0 22.568)">
                            <g id="Group_4558">
                                <path id="Path_2530" d="M1136.826 415.021s.039.147.091.439l.219 1.3.8 5.04 2.881 18.755-.117-.144a11.7 11.7 0 0 1 2.677 1.7c.847.667 1.681 1.391 2.51 2.164l-.1-.053 28.762 4.743.234.038-.027.236-2.379 21.088-.027.239h-.234c-5.2-.069-10.489-1.219-15.82-2.466-6.634-1.589-13.018-3.478-19.138-5.438-1.528-.5-3.04-.994-4.53-1.523a19.193 19.193 0 0 1-4.236-2.084c-1.323-.81-2.6-1.657-3.831-2.553a18.445 18.445 0 0 1-3.4-3.009 2.213 2.213 0 0 1-.49-1.076c-.088-.376-.147-.738-.206-1.1l-.346-2.148-.625-4.209-1.12-8.055c-.7-5.2-1.332-10.048-1.882-14.477s-1.024-8.437-1.383-11.966c-.08-.884-.182-1.733-.234-2.557a9.687 9.687 0 0 1-.014-2.4 28.2 28.2 0 0 1 .973-4.051 31.726 31.726 0 0 1 2.228-5.3c.308-.581.569-1.01.746-1.3a4.792 4.792 0 0 1 .29-.42s-.079.154-.242.448-.406.732-.7 1.319a34.091 34.091 0 0 0-2.124 5.316 28.565 28.565 0 0 0-.919 4.029 9.417 9.417 0 0 0 .041 2.335c.059.819.168 1.668.254 2.549.388 3.521.891 7.525 1.463 11.949l1.946 14.463 1.146 8.049.636 4.2.349 2.138c.06.359.121.718.2 1.056a1.726 1.726 0 0 0 .408.9 18.127 18.127 0 0 0 3.3 2.9c1.214.884 2.487 1.722 3.8 2.522a18.655 18.655 0 0 0 4.144 2.031c1.48.524 2.992 1.019 4.518 1.514 6.11 1.948 12.487 3.831 19.1 5.415 5.308 1.245 10.6 2.387 15.687 2.459l-.261.236 2.412-21.083.207.274-28.745-4.842-.06-.01-.044-.041c-.812-.765-1.639-1.49-2.471-2.152a11.49 11.49 0 0 0-2.564-1.656l-.1-.041-.015-.1-2.718-18.78c-.3-2.182-.542-3.879-.706-5.055l-.17-1.31c-.039-.293-.044-.445-.044-.445z" class="cls-5" transform="translate(-1114.786 -394.438)"/>
                            </g>
                        </g>
                        <g id="Group_4561" transform="translate(7.166 23.794)">
                            <g id="Group_4560">
                                <path id="Path_2531" d="M1134.88 408.648a17.681 17.681 0 0 1-1.326-2.562 28.629 28.629 0 0 0-3.589-5.858 12.849 12.849 0 0 0-5.485-3.92 20.632 20.632 0 0 0-2.779-.605 1.913 1.913 0 0 1 .78-.082 7.826 7.826 0 0 1 2.115.323 12.179 12.179 0 0 1 5.781 3.935 23.928 23.928 0 0 1 3.524 6.047 13.674 13.674 0 0 1 .979 2.722z" class="cls-5" transform="translate(-1121.701 -395.621)"/>
                            </g>
                        </g>
                        <g id="Group_4563" transform="translate(15.74 68.648)">
                            <g id="Group_4562">
                                <path id="Path_2532" d="M1129.981 442.9a11 11 0 0 1 9.968-3.82 17.338 17.338 0 0 0-9.968 3.82z" class="cls-5" transform="translate(-1129.975 -438.908)"/>
                            </g>
                        </g>
                        <g id="Group_4565" transform="translate(18.992 68.677)">
                            <g id="Group_4564">
                                <path id="Path_2533" d="M1133.13 446.231a10.7 10.7 0 0 1 7.135-7.28 17.666 17.666 0 0 0-7.135 7.28z" class="cls-5" transform="translate(-1133.114 -438.936)"/>
                            </g>
                        </g>
                        <g id="Group_4567" transform="translate(19.3 2.299)">
                            <g id="Group_4566">
                                <path id="Path_2534" d="M1166.2 412.519a7.955 7.955 0 0 1-1.191-.646l-3.231-1.941-11.106-6.855-.036-.022-.028-.034-5.163-6.375c-4.753-5.889-9.013-11.218-11.963-14.957l-.07-.088.043-.1 2.068-4.879.582-1.307a1.818 1.818 0 0 1 .235-.44 1.785 1.785 0 0 1-.137.48c-.134.363-.3.806-.492 1.344l-1.913 4.942-.028-.185c3.032 3.673 7.341 8.962 12.094 14.85 1.806 2.245 3.544 4.4 5.141 6.392l-.063-.056 11 7.019 3.152 2.066a8.074 8.074 0 0 1 1.106.792z" class="cls-5" transform="translate(-1133.411 -374.877)"/>
                            </g>
                        </g>
                        <g id="Group_4569" transform="translate(46.684 6.561)">
                            <g id="Group_4568">
                                <path id="Path_2535" d="M1167.748 416.369a7.332 7.332 0 0 1 .107-1.383l.478-3.775c.427-3.2 1.055-7.643 1.791-12.644l.029.166-1.023-1.9c-2.63-4.894-4.985-9.337-6.666-12.566l-1.966-3.837a8.8 8.8 0 0 1-.656-1.442 8.9 8.9 0 0 1 .841 1.343l2.116 3.755c1.767 3.183 4.175 7.6 6.806 12.491l1.02 1.9.043.079-.013.088c-.75 5-1.443 9.435-1.964 12.618l-.641 3.751a7.191 7.191 0 0 1-.302 1.356z" class="cls-5" transform="translate(-1159.839 -378.99)"/>
                            </g>
                        </g>
                        <g id="Group_4571" transform="translate(26.078 112.95)">
                            <g id="Group_4570">
                                <path id="Path_2536" d="M1161.558 481.666c.023.029-.228.267-.7.673s-1.172.978-2.05 1.666a62.631 62.631 0 0 1-7.191 4.942 38.069 38.069 0 0 1-4.325 2.129 26.452 26.452 0 0 1-3.75 1.207 17.656 17.656 0 0 1-2.614.449 3.37 3.37 0 0 1-.973.029c-.012-.1 1.361-.248 3.491-.848a30.973 30.973 0 0 0 3.656-1.3 44.208 44.208 0 0 0 4.247-2.138c2.925-1.693 5.42-3.489 7.231-4.779a26.182 26.182 0 0 1 2.978-2.03z" class="cls-5" transform="translate(-1139.953 -481.663)"/>
                            </g>
                        </g>
                        <g id="Group_4573" transform="translate(27.428 116.985)">
                            <g id="Group_4572">
                                <path id="Path_2537" d="M1163.093 485.559a3.63 3.63 0 0 1-.558.838 21.039 21.039 0 0 1-1.792 2.073 29.388 29.388 0 0 1-15.761 8.391 20.909 20.909 0 0 1-2.721.329 3.609 3.609 0 0 1-1.006-.006c-.009-.1 1.415-.208 3.653-.7a32.624 32.624 0 0 0 15.567-8.287c1.654-1.58 2.542-2.697 2.618-2.638z" class="cls-5" transform="translate(-1141.255 -485.557)"/>
                            </g>
                        </g>
                        <g id="Group_4575" transform="translate(26.433 123.251)">
                            <g id="Group_4574">
                                <path id="Path_2538" d="M1140.982 497.334a15.495 15.495 0 0 1-.581-5.73 15.529 15.529 0 0 1 .581 5.73z" class="cls-5" transform="translate(-1140.295 -491.604)"/>
                            </g>
                        </g>
                    </g>
                    <g id="Group_4610" transform="translate(18.627)">
                        <g id="Group_4577" transform="translate(1.423)">
                            <path id="Path_2539" d="M1138.722 365.922a2.02 2.02 0 0 1-1.788-1.209 7.02 7.02 0 0 1-.595-2.318q-.727-5.294-1.457-10.589a54.164 54.164 0 0 1-.733-9.028 19.3 19.3 0 0 1 2.662-8.312c1.6-3.071 8.06-8.491 18.793-5.451" class="cls-5" transform="translate(-1134.136 -328.117)"/>
                        </g>
                        <g id="Group_4599" transform="translate(0 .45)">
                            <g id="Group_4594" transform="translate(0 24.429)">
                                <g id="Group_4593">
                                    <g id="Group_4592">
                                        <g id="Group_4591">
                                            <g id="Group_4590">
                                                <g id="Group_4589">
                                                    <g id="Group_4588">
                                                        <g id="Group_4587">
                                                            <g id="Group_4586">
                                                                <g id="Group_4585">
                                                                    <g id="Group_4584">
                                                                        <g id="Group_4583">
                                                                            <g id="Group_4582">
                                                                                <g id="Group_4581">
                                                                                    <g id="Group_4580">
                                                                                        <g id="Group_4579">
                                                                                            <g id="Group_4578">
                                                                                                <path id="Path_2540" d="M1138.22 352.356c-.142-.059-5.734-1.581-5.448 4.089s5.92 4.213 5.922 4.05-.474-8.139-.474-8.139z" class="cls-8" transform="translate(-1132.762 -352.127)"/>
                                                                                            </g>
                                                                                        </g>
                                                                                    </g>
                                                                                </g>
                                                                            </g>
                                                                        </g>
                                                                    </g>
                                                                </g>
                                                            </g>
                                                        </g>
                                                    </g>
                                                </g>
                                            </g>
                                        </g>
                                    </g>
                                </g>
                            </g>
                            <g id="Group_4598" transform="translate(2.929)">
                                <g id="Group_4596" transform="translate(1.619 1.545)">
                                    <g id="Group_4595">
                                        <path id="Path_2541" d="M1167.212 363.7c-.025-4.008-.747-12.257-1.487-19.717a15.469 15.469 0 0 0-15.678-13.939l-.8.015c-8.625.663-12.88 8.359-11.977 16.963l1.212 27.441 20.573 11.287-.068-12.306s8.276-1.444 8.225-9.744z" class="cls-8" transform="translate(-1137.151 -330.042)"/>
                                    </g>
                                </g>
                                <g id="Group_4597">
                                    <path id="Path_2542" d="M1156.176 329.215c-2.935-1.155-5.907-.546-9.028-.088a14.246 14.246 0 0 0-6.638 2.641 12.763 12.763 0 0 0-4.886 9.958 36.546 36.546 0 0 0 1.227 11.183l.308-.069a5.406 5.406 0 0 0-.044 2.887 1.865 1.865 0 0 0 2.29 1.25c1.044-.457 1.078-1.9.983-3.033a81.6 81.6 0 0 1-.045-11.52c.161-2.868 1.8-6.378 4.034-7.737 4.072-2.71 9.371-.5 11.172-.182 2.757-2.365 5.338-.516 7.026 1.536-.615-3.094-3.464-5.671-6.399-6.826z" class="cls-5" transform="translate(-1135.589 -328.551)"/>
                                </g>
                            </g>
                        </g>
                        <g id="Group_4600" transform="translate(14.919 4.778)"/>
                        <g id="Group_4601" transform="translate(20.252 .164)">
                            <path id="Path_2544" d="M1154.946 334.513c1.816.018 3.267-1.224 5.294-.892 1.224.2 2.453 2.194 3.521 4.683a3.595 3.595 0 0 0-1.058-6.578 3.27 3.27 0 0 0 1.616.528 1.126 1.126 0 0 0 1.14-1.042 1.518 1.518 0 0 0-.678-1 8.853 8.853 0 0 0-12.474 1.429" class="cls-5" transform="translate(-1152.306 -328.276)"/>
                        </g>
                        <g id="Group_4603" transform="translate(22.853 1.545)">
                            <g id="Group_4602">
                                <path id="Path_2545" d="M1164.215 331.031c-.052.075-.589-.313-1.568-.62a6.058 6.058 0 0 0-6.965 2.415c-.579.848-.762 1.483-.847 1.457a2.946 2.946 0 0 1 .524-1.658 5.9 5.9 0 0 1 7.418-2.573c1.012.424 1.478.937 1.438.979z" class="cls-7" transform="translate(-1154.816 -329.608)"/>
                            </g>
                        </g>
                        <g id="Group_4605" transform="translate(22.842 3.516)">
                            <g id="Group_4604">
                                <path id="Path_2546" d="M1163.83 337.217a6.374 6.374 0 0 0 .013-1.929 4.044 4.044 0 0 0-.908-1.812 4.281 4.281 0 0 0-2.111-1.265 5.668 5.668 0 0 0-4.419.767c-1.024.637-1.532 1.224-1.6 1.163a3.818 3.818 0 0 1 1.384-1.48 6.185 6.185 0 0 1 2.014-.967 5.362 5.362 0 0 1 2.757-.005 4.574 4.574 0 0 1 2.349 1.465 4.152 4.152 0 0 1 .906 2.07 2.488 2.488 0 0 1-.385 1.993z" class="cls-7" transform="translate(-1154.806 -331.511)"/>
                            </g>
                        </g>
                        <g id="Group_4607" transform="translate(1.94 6.715)">
                            <g id="Group_4606">
                                <path id="Path_2547" d="M1135.04 350.762a2.026 2.026 0 0 1-.217-.757 11.93 11.93 0 0 1-.189-2.136 14.3 14.3 0 0 1 6.5-12.018 11.985 11.985 0 0 1 1.89-1.012 2.041 2.041 0 0 1 .752-.233c.039.085-.989.519-2.426 1.559a15.186 15.186 0 0 0-6.331 11.713c-.086 1.771.114 2.87.021 2.884z" class="cls-7" transform="translate(-1134.634 -334.598)"/>
                            </g>
                        </g>
                        <g id="Group_4609" transform="translate(3.371 12.421)">
                            <g id="Group_4608">
                                <path id="Path_2548" d="M1136.257 351.606a12.777 12.777 0 0 1 3.827-11.5 19.07 19.07 0 0 0-3.827 11.5z" class="cls-7" transform="translate(-1136.015 -340.105)"/>
                            </g>
                        </g>
                    </g>
                    <g id="Group_4629" transform="translate(96.27 57.703)">
                        <g id="Group_4628">
                            <g id="Group_4611">
                                <path id="Path_2549" d="M1227.451 397.463c-.242-.636-1.438-.775-1.438-.775l.239-.361a1.739 1.739 0 0 0 .12-1.728c-.041-.084-.087-.17-.138-.256a2.879 2.879 0 0 0-1.384-1s.879-1.2.664-1.787a2.849 2.849 0 0 0-2.711-1.592 42.009 42.009 0 0 0-5.648 1.685 1.25 1.25 0 0 1-1.66-.922 18.038 18.038 0 0 0-1.813-5.229c-1.034-1.734-2.253-1.8-2.988-1.637a.581.581 0 0 0-.417.789 31.393 31.393 0 0 1 1.32 3.65c.193.936-.481 7.677-.481 7.677l-3.423 4.613 7.77 11.221 3.416-5.076 7.331-3.23s1.388-1.745 1.238-2.344a1.836 1.836 0 0 0-.72-.967l.907-1.278a3.959 3.959 0 0 0-.184-1.453z" class="cls-8" transform="translate(-1207.693 -383.805)"/>
                            </g>
                            <g id="Group_4615" transform="translate(9.128 7.116)">
                                <g id="Group_4614">
                                    <g id="Group_4613">
                                        <g id="Group_4612">
                                            <path id="Path_2550" d="M1225.187 393.239a.7.7 0 0 1-.152.1l-.451.26-1.672.924-2.49 1.352c-.473.246-.948.539-1.5.767a1.987 1.987 0 0 1-1.807-.043 1.342 1.342 0 0 1-.552-.776 1.916 1.916 0 0 1-.016-.917 2.6 2.6 0 0 1 .944-1.409 10.221 10.221 0 0 1 1.27-.843l1.134-.676 1.647-.969.452-.256a.736.736 0 0 1 .164-.08.719.719 0 0 1-.146.109l-.435.284-1.619 1.016-1.122.694a10.263 10.263 0 0 0-1.243.844 2.438 2.438 0 0 0-.881 1.322 1.418 1.418 0 0 0 .5 1.514 1.452 1.452 0 0 0 .821.212 2.379 2.379 0 0 0 .83-.181c.525-.215 1.01-.509 1.485-.749l2.508-1.32 1.7-.877.465-.231a.768.768 0 0 1 .166-.071z" class="cls-17" transform="translate(-1216.503 -390.672)"/>
                                        </g>
                                    </g>
                                </g>
                            </g>
                            <g id="Group_4619" transform="translate(11.034 13.046)">
                                <g id="Group_4618">
                                    <g id="Group_4617">
                                        <g id="Group_4616">
                                            <path id="Path_2551" d="M1226.112 396.4a1.856 1.856 0 0 1-.349.209c-.23.124-.566.3-.986.5-.838.41-2.013.945-3.339 1.471a9.142 9.142 0 0 1-.986.354 1.97 1.97 0 0 1-1 .031 1.525 1.525 0 0 1-1.1-1.2 1.492 1.492 0 0 1 .257-1.085 1.282 1.282 0 0 1 .206-.225c.055-.044.086-.062.09-.058s-.106.1-.24.32a1.487 1.487 0 0 0-.194 1.027 1.413 1.413 0 0 0 1.017 1.072 1.828 1.828 0 0 0 .914-.041 9.9 9.9 0 0 0 .967-.351c1.321-.524 2.5-1.04 3.351-1.422l1.007-.452a1.877 1.877 0 0 1 .385-.15z" class="cls-17" transform="translate(-1218.341 -396.395)"/>
                                        </g>
                                    </g>
                                </g>
                            </g>
                            <g id="Group_4623" transform="translate(12.111 15.566)">
                                <g id="Group_4622">
                                    <g id="Group_4621">
                                        <g id="Group_4620">
                                            <path id="Path_2552" d="M1226.459 399.509a1.548 1.548 0 0 1-.35.138l-.973.313c-.824.258-1.966.6-3.229.973a8.9 8.9 0 0 1-.94.246 1.72 1.72 0 0 1-.924-.069 1.012 1.012 0 0 1-.6-.594 1.146 1.146 0 0 1 .007-.737 1.561 1.561 0 0 1 .668-.791 1.027 1.027 0 0 1 .343-.16c.007.012-.113.074-.3.216a1.557 1.557 0 0 0-.591.772 1.02 1.02 0 0 0 .011.651.871.871 0 0 0 .527.5 1.582 1.582 0 0 0 .84.051 9.444 9.444 0 0 0 .919-.245c1.264-.37 2.411-.7 3.243-.924l.988-.261a1.594 1.594 0 0 1 .361-.079z" class="cls-17" transform="translate(-1219.381 -398.827)"/>
                                        </g>
                                    </g>
                                </g>
                            </g>
                            <g id="Group_4627" transform="translate(13.202 17.802)">
                                <g id="Group_4626">
                                    <g id="Group_4625">
                                        <g id="Group_4624">
                                            <path id="Path_2553" d="M1226.459 402.349a7.074 7.074 0 0 1-1.1.111c-.683.047-1.626.1-2.669.146l-.76.033a3.091 3.091 0 0 1-.727-.025 1.046 1.046 0 0 1-.6-.325.679.679 0 0 1-.157-.576.972.972 0 0 1 .517-.645.5.5 0 0 1 .292-.079c0 .014-.1.036-.259.137a.946.946 0 0 0-.431.607.554.554 0 0 0 .145.461.907.907 0 0 0 .518.264 3.149 3.149 0 0 0 .689.012l.761-.036c1.043-.048 1.987-.081 2.672-.1a7.061 7.061 0 0 1 1.109.015z" class="cls-17" transform="translate(-1220.434 -400.985)"/>
                                        </g>
                                    </g>
                                </g>
                            </g>
                        </g>
                    </g>
                    <g id="Group_4630" transform="translate(58.553 113.794)">
                        <path id="Path_2554" d="M1172.319 448.877l1.608-.421s.568-2.7 1.278-3.27 7.831-3.813 9.394-4.666 7.679-3.639 8.447-2.157c.869 1.675-1.62 3.053-2.971 3.693s-5.2 2.136-4.422 3.059 9.392.506 9.392.506l1.079-1.449s1.9 1.8 1.684 3.36a6.826 6.826 0 0 1-.854 2.558h-.639a1.784 1.784 0 0 1 .071 1.849 17.046 17.046 0 0 1-1.707 2.133 6.332 6.332 0 0 1-4.052 2.959c-.355.1-14.578 1.332-14.578 1.332l-4.759.478z" class="cls-8" transform="translate(-1171.293 -437.936)"/>
                    </g>
                </g>
                <g id="Group_4667" transform="translate(.394)">
                    <g id="Group_4642" transform="translate(33.561 9.167)">
                        <g id="Group_4641">
                            <g id="Group_4640">
                                <g id="Group_4635">
                                    <g id="Group_4634">
                                        <g id="Group_4633">
                                            <g id="Group_4632">
                                                <path id="Path_2555" fill="#ff4f5b" d="M900.146 245.048l-37.736-13.9-37.369 13.712c-4.771 2.312-8.955 3.7-8.955 8.253v22.7a87.442 87.442 0 0 0 12.31 45.17 77.324 77.324 0 0 0 34.381 31.146c15.276-5.09 26.677-18.657 33.647-30.26a87.436 87.436 0 0 0 12.31-45.171v-20.412c0-6.501-3.358-9.675-8.588-11.238z" transform="translate(-816.086 -231.148)"/>
                                            </g>
                                        </g>
                                    </g>
                                </g>
                                <g id="Group_4639">
                                    <g id="Group_4638">
                                        <g id="Group_4637">
                                            <g id="Group_4636">
                                                <path id="Path_2556" d="M900.146 245.048l-37.736-13.9-37.369 13.712c-4.771 2.312-8.955 3.7-8.955 8.253v22.7a87.442 87.442 0 0 0 12.31 45.17 77.324 77.324 0 0 0 34.381 31.146c15.276-5.09 26.677-18.657 33.647-30.26a87.436 87.436 0 0 0 12.31-45.171v-20.412c0-6.501-3.358-9.675-8.588-11.238z" class="cls-5" transform="translate(-816.086 -231.148)"/>
                                            </g>
                                        </g>
                                    </g>
                                </g>
                            </g>
                        </g>
                    </g>
                    <g id="Group_4662">
                        <g id="Group_4645" transform="translate(20.065 10.497)">
                            <g id="Group_4644">
                                <g id="Group_4643">
                                    <path id="Path_2557" d="M919.067 337.376s.174-.244.527-.709l.3-.39c.1-.15.191-.329.3-.515a7.921 7.921 0 0 0 .669-1.339c.1-.264.229-.539.335-.838l.266-.966a6.754 6.754 0 0 0 .223-1.077 11.071 11.071 0 0 0 .165-1.185 22.394 22.394 0 0 0-.262-5.717 51.389 51.389 0 0 0-5.249-14.783 115.43 115.43 0 0 0-11.274-17.532 179.377 179.377 0 0 0-16.811-18.883 205.532 205.532 0 0 0-22.07-18.839c-4.12-3.028-8.465-5.964-13.047-8.731a125.943 125.943 0 0 0-14.491-7.6 67.672 67.672 0 0 0-16.123-5.054 28.537 28.537 0 0 0-8.6-.212 16.1 16.1 0 0 0-4.154 1.2 10.357 10.357 0 0 0-5.629 6.3 16.124 16.124 0 0 0-.726 4.265 28.452 28.452 0 0 0 1.184 8.529 67.718 67.718 0 0 0 6.855 15.45 126.229 126.229 0 0 0 9.2 13.536c3.27 4.237 6.684 8.221 10.161 11.97a205.566 205.566 0 0 0 21.23 19.785 179.4 179.4 0 0 0 20.675 14.553 115.435 115.435 0 0 0 18.7 9.2 51.433 51.433 0 0 0 15.284 3.532 22.407 22.407 0 0 0 5.708-.391 11.506 11.506 0 0 0 1.159-.3 6.809 6.809 0 0 0 1.044-.344l.929-.374c.285-.14.543-.294.794-.428a8.027 8.027 0 0 0 1.255-.819c.172-.129.339-.238.477-.355l.353-.339c.422-.4.645-.605.645-.605s-.205.218-.621.63l-.349.347c-.137.119-.3.231-.474.364a7.963 7.963 0 0 1-1.252.836c-.251.137-.51.3-.8.437l-.932.384a6.906 6.906 0 0 1-1.048.354 11.347 11.347 0 0 1-1.165.308 22.35 22.35 0 0 1-5.734.424 51.294 51.294 0 0 1-15.344-3.486 115.1 115.1 0 0 1-18.75-9.169 178.787 178.787 0 0 1-20.728-14.541 205.18 205.18 0 0 1-21.282-19.791c-3.486-3.752-6.908-7.74-10.188-11.985a126.1 126.1 0 0 1-9.231-13.567 67.939 67.939 0 0 1-6.894-15.526 28.77 28.77 0 0 1-1.2-8.624 16.476 16.476 0 0 1 .742-4.36 10.694 10.694 0 0 1 5.807-6.5 16.466 16.466 0 0 1 4.247-1.231 28.823 28.823 0 0 1 8.7.213 67.909 67.909 0 0 1 16.205 5.084 125.924 125.924 0 0 1 14.525 7.624c4.589 2.775 8.94 5.721 13.064 8.757a205.251 205.251 0 0 1 22.082 18.89 178.781 178.781 0 0 1 16.8 18.939 115.011 115.011 0 0 1 11.253 17.592 51.307 51.307 0 0 1 5.21 14.849 22.4 22.4 0 0 1 .232 5.747 11.418 11.418 0 0 1-.173 1.192 7.033 7.033 0 0 1-.232 1.082c-.1.339-.189.662-.277.97-.109.3-.236.575-.344.84a7.948 7.948 0 0 1-.688 1.339c-.112.185-.205.363-.308.512l-.306.387c-.357.456-.549.684-.549.684z" class="cls-5" transform="translate(-803.062 -232.432)"/>
                                </g>
                            </g>
                        </g>
                        <g id="Group_4648" transform="translate(5.45 37.351)">
                            <g id="Group_4647">
                                <g id="Group_4646">
                                    <path id="Path_2558" d="M940.439 286.083s-.032-.3-.077-.88l-.039-.488c-.014-.179-.077-.372-.119-.583a7.986 7.986 0 0 0-.393-1.445c-.1-.266-.188-.554-.308-.848l-.444-.9a6.657 6.657 0 0 0-.55-.952 11.177 11.177 0 0 0-.666-.994 22.371 22.371 0 0 0-4-4.092 51.391 51.391 0 0 0-13.758-7.537A115.34 115.34 0 0 0 900 261.786a179.432 179.432 0 0 0-25.114-2.9 205.507 205.507 0 0 0-29.01.633c-5.09.483-10.287 1.183-15.548 2.169a126.013 126.013 0 0 0-15.871 3.976 67.723 67.723 0 0 0-15.4 6.961 28.513 28.513 0 0 0-6.558 5.565 16.09 16.09 0 0 0-2.3 3.663 10.354 10.354 0 0 0-.007 8.449 16.107 16.107 0 0 0 2.3 3.665 28.441 28.441 0 0 0 6.557 5.57 67.642 67.642 0 0 0 15.4 6.965 126.125 126.125 0 0 0 15.875 3.978c5.261.985 10.459 1.686 15.55 2.169a205.56 205.56 0 0 0 29.014.633A179.28 179.28 0 0 0 900 310.38a115.42 115.42 0 0 0 20.084-5.579 51.427 51.427 0 0 0 13.756-7.537 22.433 22.433 0 0 0 4-4.092 11.44 11.44 0 0 0 .666-.994 6.907 6.907 0 0 0 .55-.951l.444-.9c.119-.294.209-.581.308-.848a8.071 8.071 0 0 0 .392-1.446c.043-.211.093-.4.119-.583s.027-.343.039-.489c.045-.581.077-.88.077-.88s-.009.3-.043.883l-.03.492c-.023.179-.072.374-.111.586a7.92 7.92 0 0 1-.378 1.458c-.1.268-.183.56-.3.856l-.44.907a6.728 6.728 0 0 1-.546.962 11.414 11.414 0 0 1-.663 1.005 22.427 22.427 0 0 1-4 4.133 51.28 51.28 0 0 1-13.771 7.613 115.084 115.084 0 0 1-20.107 5.638 178.816 178.816 0 0 1-25.148 2.947 205.209 205.209 0 0 1-29.056-.6c-5.1-.48-10.308-1.178-15.581-2.163a125.952 125.952 0 0 1-15.918-3.98 67.953 67.953 0 0 1-15.481-7 28.754 28.754 0 0 1-6.635-5.638 16.459 16.459 0 0 1-2.348-3.748 10.687 10.687 0 0 1 .007-8.716 16.391 16.391 0 0 1 2.35-3.745 28.812 28.812 0 0 1 6.635-5.634 67.952 67.952 0 0 1 15.477-6.993 126.044 126.044 0 0 1 15.916-3.979c5.272-.983 10.479-1.682 15.578-2.161a205.313 205.313 0 0 1 29.053-.6 178.96 178.96 0 0 1 25.146 2.947 115.118 115.118 0 0 1 20.108 5.638 51.259 51.259 0 0 1 13.772 7.613 22.369 22.369 0 0 1 4 4.133 11.678 11.678 0 0 1 .664 1.005 6.83 6.83 0 0 1 .546.962l.439.908c.119.3.206.586.3.856a7.878 7.878 0 0 1 .378 1.458c.039.212.088.406.111.586l.03.492c.04.582.05.881.05.881z" class="cls-5" transform="translate(-788.957 -258.347)"/>
                                </g>
                            </g>
                        </g>
                        <g id="Group_4651" transform="translate(31.544)">
                            <g id="Group_4650">
                                <g id="Group_4649">
                                    <path id="Path_2559" d="M911.887 224.707s-.256-.157-.744-.478l-.409-.269c-.157-.089-.341-.167-.534-.262a7.938 7.938 0 0 0-1.382-.576c-.271-.086-.553-.192-.859-.277l-.982-.2a6.851 6.851 0 0 0-1.089-.148 11.2 11.2 0 0 0-1.195-.082 22.415 22.415 0 0 0-5.685.655 51.413 51.413 0 0 0-14.387 6.254 115.489 115.489 0 0 0-16.714 12.455 179.478 179.478 0 0 0-17.681 18.072 205.566 205.566 0 0 0-17.273 23.315c-2.737 4.318-5.368 8.855-7.812 13.617a125.931 125.931 0 0 0-6.582 14.98 67.69 67.69 0 0 0-3.931 16.434 28.5 28.5 0 0 0 .381 8.592 16.072 16.072 0 0 0 1.486 4.061 10.352 10.352 0 0 0 6.673 5.182 16.112 16.112 0 0 0 4.3.43 28.471 28.471 0 0 0 8.419-1.769 67.715 67.715 0 0 0 14.941-7.9 125.84 125.84 0 0 0 12.869-10.11c4-3.554 7.742-7.234 11.243-10.961a205.567 205.567 0 0 0 18.275-22.542 179.206 179.206 0 0 0 13.094-21.628 115.369 115.369 0 0 0 7.895-19.291 51.412 51.412 0 0 0 2.471-15.49 22.4 22.4 0 0 0-.783-5.668 11.428 11.428 0 0 0-.377-1.136 6.83 6.83 0 0 0-.414-1.018l-.438-.9c-.158-.275-.331-.522-.481-.763a7.955 7.955 0 0 0-.9-1.2c-.141-.163-.262-.321-.387-.451l-.364-.33c-.431-.393-.646-.6-.646-.6s.23.19.67.575l.37.324c.128.128.252.286.4.448a7.944 7.944 0 0 1 .921 1.192c.153.24.329.488.491.764l.447.9a6.84 6.84 0 0 1 .425 1.022 11.376 11.376 0 0 1 .387 1.14 22.36 22.36 0 0 1 .818 5.692 51.247 51.247 0 0 1-2.42 15.548 115.025 115.025 0 0 1-7.863 19.346 178.993 178.993 0 0 1-13.078 21.68 205.346 205.346 0 0 1-18.278 22.6c-3.5 3.736-7.247 7.424-11.255 10.989a126.084 126.084 0 0 1-12.9 10.142 67.9 67.9 0 0 1-15.014 7.948 28.774 28.774 0 0 1-8.52 1.79 16.458 16.458 0 0 1-4.4-.441 10.685 10.685 0 0 1-6.884-5.345 16.468 16.468 0 0 1-1.52-4.152 28.841 28.841 0 0 1-.386-8.7 67.961 67.961 0 0 1 3.955-16.516 126.108 126.108 0 0 1 6.607-15.017c2.452-4.77 5.091-9.313 7.836-13.636a205.217 205.217 0 0 1 17.324-23.331A178.859 178.859 0 0 1 867.75 241.6a115.138 115.138 0 0 1 16.775-12.437 51.322 51.322 0 0 1 14.455-6.221 22.427 22.427 0 0 1 5.717-.627 11.558 11.558 0 0 1 1.2.091 6.788 6.788 0 0 1 1.1.158l.986.208c.307.088.59.2.861.285a7.96 7.96 0 0 1 1.383.595c.193.1.376.179.532.272l.407.278c.48.329.721.505.721.505z" class="cls-5" transform="translate(-814.14 -222.301)"/>
                                </g>
                            </g>
                        </g>
                        <g id="Group_4653" transform="translate(0 95.489)">
                            <g id="Group_4652">
                                <path id="Path_2560" d="M788.494 315.277a2.81 2.81 0 1 1-3.973 0 2.81 2.81 0 0 1 3.973 0z" class="cls-5" transform="translate(-783.698 -314.454)"/>
                            </g>
                        </g>
                        <g id="Group_4655" transform="translate(157.706 6.436)">
                            <g id="Group_4654">
                                <path id="Path_2561" d="M941.514 231.321a2.81 2.81 0 1 1-2.809-2.809 2.81 2.81 0 0 1 2.809 2.809z" class="cls-5" transform="translate(-935.895 -228.512)"/>
                            </g>
                        </g>
                        <g id="Group_4657" transform="translate(21.112 104.836)">
                            <g id="Group_4656">
                                <path id="Path_2562" d="M805.5 324.19a.714.714 0 1 1-.714-.715.714.714 0 0 1 .714.715z" class="cls-5" transform="translate(-804.072 -323.475)"/>
                            </g>
                        </g>
                        <g id="Group_4659" transform="translate(147.783 64.373)">
                            <g id="Group_4658">
                                <path id="Path_2563" d="M927.747 285.139a.714.714 0 1 1-.715-.714.715.715 0 0 1 .715.714z" class="cls-5" transform="translate(-926.318 -284.425)"/>
                            </g>
                        </g>
                        <g id="Group_4661" transform="translate(157.706 31.083)">
                            <g id="Group_4660">
                                <path id="Path_2564" d="M937.323 253.013a.714.714 0 1 1-.714-.715.714.714 0 0 1 .714.715z" class="cls-5" transform="translate(-935.895 -252.298)"/>
                            </g>
                        </g>
                    </g>
                    <g id="Group_4666" transform="translate(42.719 21.125)">
                        <g id="Group_4665">
                            <g id="Group_4664">
                                <g id="Group_4663">
                                    <path id="Path_2565" d="M892.366 253.841l-30.276-11.153-29.981 11c-3.828 1.854-7.185 2.965-7.185 6.621v18.21a70.153 70.153 0 0 0 9.877 36.24 62.038 62.038 0 0 0 27.584 24.988c12.255-4.083 21.4-14.968 27-24.278a70.151 70.151 0 0 0 9.876-36.24v-16.372c-.004-5.216-2.699-7.763-6.895-9.016z" class="cls-13" transform="translate(-824.924 -242.688)"/>
                                </g>
                            </g>
                        </g>
                    </g>
                </g>
            </g>
            <path id="Line_1" fill="none" stroke="#195dff" stroke-linecap="round" stroke-width="1.056px" d="M0 0h653.105" transform="translate(0 449.717)"/>
        </g>
        <g id="Group_2391" class="cls-20" transform="translate(1545.642 361)">
            <path id="Path_1413" d="M-1256.128 4222.484c6.423-3.5 9.343-.584 11.68-3.5s-6.423-10.511 11.1-18.1c0 0 1.169-16.352 25.11-16.936s17.518 16.35 23.939 20.438 8.177-2.334 14.6 1.752 3.5 12.261 8.758 13.431 12.263-5.253 18.687-1.169 6.425 7.593 9.344 7.593 8.76-2.333 12.262 0 7.592 5.254 7.592 5.254H-1260.8s-1.752-5.26 4.672-8.763z" class="cls-21" transform="translate(1261.018 -4183.927)"/>
        </g>
        <g id="Group_2391-2" class="cls-20" transform="translate(1070.192 484.975)">
            <path id="Path_1413-2" d="M-1257.92 4208.353c4.069-2.221 5.919-.371 7.4-2.221s-4.069-6.658 7.029-11.467c0 0 .74-10.359 15.907-10.729s11.1 10.359 15.166 12.948 5.18-1.479 9.249 1.11 2.22 7.768 5.548 8.509 7.768-3.329 11.838-.741 4.07 4.81 5.919 4.81 5.55-1.478 7.768 0 4.809 3.329 4.809 3.329h-93.591s-1.112-3.33 2.958-5.548z" class="cls-21" transform="translate(1261.018 -4183.927)"/>
        </g>
    </g>
</svg>
