<svg xmlns="http://www.w3.org/2000/svg" width="704" height="359.221" viewBox="0 0 704 359.221">
    <defs>
        <style>
            .cls-1,.cls-4{fill:none;stroke-linecap:round}.cls-1{stroke:#195dff}.cls-2{fill:#c1c6c7}.cls-3{opacity:.27}.cls-10,.cls-4{stroke:#000}.cls-4{stroke-linejoin:round;stroke-width:.75px}.cls-5{fill:#e1e1e1}.cls-11,.cls-6{fill:#fff}.cls-11,.cls-6,.cls-7,.cls-8{stroke:#16272a}.cls-7,.cls-8{fill:#e3ebfd}.cls-8{opacity:.6}.cls-9{fill:#16272a}.cls-10{fill:#e2f4f7}.cls-11{opacity:.2}
        </style>
    </defs>
    <g id="Group_10747" transform="translate(-906.1 -258)">
        <g id="Group_13793" transform="translate(906.6 258)">
            <g id="Group_1870" transform="translate(0 234.081)">
                <path id="Path_996" d="M-3 0h703" class="cls-1" transform="translate(3)"/>
            </g>
            <g id="Group_12743" transform="translate(282.971 358.721)">
                <path id="Path_996-2" d="M-3 0h261.847" class="cls-1" transform="translate(3)"/>
            </g>
            <g id="Group_12744" transform="translate(150.731 287.281)">
                <path id="Path_996-3" d="M-3 0h261.847" class="cls-1" transform="translate(3)"/>
            </g>
            <g id="Group_13446" transform="translate(533.923)">
                <g id="Group_13438" transform="translate(0 52.05)">
                    <path id="Path_10396" d="M358.415 79.217l-28.478 10.608h64.348l-26.739-10.608z" class="cls-2" transform="translate(-329.937 -79.217)"/>
                </g>
                <g id="Group_13440" transform="translate(25.901 61.167)">
                    <g id="Group_13439">
                        <path id="Path_10397" d="M381.689 92.89a17.155 17.155 0 0 0-.237 1.867 9.308 9.308 0 0 0 1.178 4.9c.492.964 1.132 1.979 1.628 3.183a6.974 6.974 0 0 1 .416 4.1 7.371 7.371 0 0 1-2.223 3.975 6.787 6.787 0 0 1-4.554 1.74 7.16 7.16 0 0 1-4.62-1.578 7.208 7.208 0 0 1-2.054-8.02 13.407 13.407 0 0 1 1.9-3.048 12.253 12.253 0 0 0 1.55-2.458 5.611 5.611 0 0 0 .5-2.112 4.042 4.042 0 0 0-.422-1.8 1.723 1.723 0 0 1 .259.419 3.433 3.433 0 0 1 .31 1.381 5.608 5.608 0 0 1-.45 2.195 12.076 12.076 0 0 1-1.529 2.534 13.423 13.423 0 0 0-1.821 3 6.761 6.761 0 0 0-.244 3.926 6.694 6.694 0 0 0 2.242 3.7 6.819 6.819 0 0 0 4.382 1.487 6.441 6.441 0 0 0 4.309-1.637 7.056 7.056 0 0 0 2.132-3.771 6.683 6.683 0 0 0-.367-3.916c-.469-1.174-1.093-2.2-1.576-3.179a9.194 9.194 0 0 1-1.087-5.031 7.883 7.883 0 0 1 .229-1.392 1.983 1.983 0 0 1 .149-.465z" class="cls-2" transform="translate(-370.753 -92.89)"/>
                    </g>
                </g>
                <g id="Group_13442" transform="translate(30.441 61.84)">
                    <g id="Group_13441">
                        <path id="Path_10398" d="M380.818 93.82a12.087 12.087 0 0 1-.192 1.327 34.511 34.511 0 0 0-.363 3.624 29.2 29.2 0 0 0 .236 5.365 1.206 1.206 0 0 0 .293.6.593.593 0 0 0 .549.2c.388-.084.6-.678.519-1.142a2.314 2.314 0 0 0-2.2-1.924 2.289 2.289 0 0 0-2.246 1.86 1.006 1.006 0 0 0 .591 1.133.891.891 0 0 0 1.029-.6 4.435 4.435 0 0 0 .24-1.4c.036-.479.053-.944.06-1.4a24.015 24.015 0 0 0-.1-2.505 24.753 24.753 0 0 0-.607-3.585c-.2-.836-.344-1.293-.315-1.3a1.23 1.23 0 0 1 .142.318c.082.213.19.531.315.947a21.02 21.02 0 0 1 .73 3.6 22.719 22.719 0 0 1 .151 2.535c0 .456-.011.929-.042 1.415a4.632 4.632 0 0 1-.254 1.522 1.506 1.506 0 0 1-.549.667 1.048 1.048 0 0 1-.91.13 1.367 1.367 0 0 1-.843-1.518 2.62 2.62 0 0 1 5.178.056 1.724 1.724 0 0 1-.112.907 1.021 1.021 0 0 1-.7.64.95.95 0 0 1-.88-.3 1.554 1.554 0 0 1-.378-.773 28.141 28.141 0 0 1 .322-9.089c.089-.423.166-.751.227-.97a1.226 1.226 0 0 1 .109-.34z" class="cls-2" transform="translate(-377.029 -93.82)"/>
                    </g>
                </g>
                <g id="Group_13444" transform="translate(32.863)">
                    <g id="Group_13443">
                        <path id="Path_10399" d="M380.556 4.2a2.959 2.959 0 0 1 .038.545l.035 1.562.059 5.744.056 18.95-.056 18.954-.059 5.744-.035 1.562a2.945 2.945 0 0 1-.038.544 2.994 2.994 0 0 1-.038-.544l-.035-1.562-.06-5.744-.055-18.954.055-18.95.06-5.744.035-1.562a3.008 3.008 0 0 1 .038-.545z" class="cls-2" transform="translate(-380.368 -4.202)"/>
                    </g>
                </g>
                <g id="Group_13445" transform="translate(27.965 43.682)">
                    <path id="Path_10400" d="M373.615 75.86l1.959-8.768h6.507l1.66 8.768z" class="cls-2" transform="translate(-373.615 -67.092)"/>
                </g>
            </g>
            <g id="Group_13462" transform="translate(85.727 159.6)">
                <g id="Group_3906">
                    <g id="Group_3902" class="cls-3" transform="translate(26.215)">
                        <path id="Path_2099" d="M415.9 291.125c-2.9-1.994-1.144-5.285-2.487-7.465a4.7 4.7 0 0 1 .894-5.852 3.52 3.52 0 0 0 .742-4.652c-.97-2.036.124-4.522 1.035-5.661a13.1 13.1 0 0 0 3.992-7.528c.889-4.824 7.4-7.03 7.4-7.03s4.192 5.453 2.252 9.958a13.1 13.1 0 0 0-.861 8.477c.126 1.453-.346 4.128-2.283 5.283a3.518 3.518 0 0 0-1.966 4.279 4.7 4.7 0 0 1-2.507 5.364c-2.325 1.068-2.696 4.778-6.211 4.827z" class="cls-4" transform="translate(-412.739 -252.938)"/>
                        <path id="Line_263" d="M0 38.188L11.58 0" class="cls-4" transform="translate(3.158)"/>
                    </g>
                    <g id="Group_3903" class="cls-3" transform="translate(3.67 1.731)">
                        <path id="Path_2100" d="M416.4 306.472c3.957-2.671 1.621-7.158 3.47-10.1s.707-5.987-1.14-7.952-2.288-3.572-.947-6.321-.11-6.138-1.333-7.7-4.178-3.711-5.322-10.266-9.955-9.635-9.955-9.635-5.756 7.347-3.182 13.484 1.25 9.547 1.061 11.516.417 5.607 3.03 7.2 3.105 3.18 2.614 5.833.188 5.834 3.333 7.311 3.6 6.517 8.371 6.63z" class="cls-4" transform="translate(-397.33 -254.503)"/>
                        <path id="Line_270" d="M15.227 51.969L0 0" class="cls-4" transform="translate(3.844)"/>
                    </g>
                    <g id="Group_3904" class="cls-3" transform="translate(0 38.188)">
                        <path id="Path_2101" d="M405.886 300.753c1.006-1.613-.572-2.865-.376-4.235a2.535 2.535 0 0 0-1.7-2.707 1.9 1.9 0 0 1-1.369-2.146 3.156 3.156 0 0 0-1.733-2.583 7.089 7.089 0 0 1-3.6-2.87c-1.479-2.2-5.182-1.89-5.182-1.89s-.9 3.6 1.028 5.418a7.09 7.09 0 0 1 2.254 4.017 3.154 3.154 0 0 0 2.268 2.126 1.9 1.9 0 0 1 1.9 1.7 2.538 2.538 0 0 0 2.4 2.118c1.374.026 2.355 1.785 4.11 1.052z" class="cls-4" transform="translate(-391.712 -284.308)"/>
                        <path id="Line_277" d="M13.963 16.43L0 0" class="cls-4" transform="translate(.21 .015)"/>
                    </g>
                    <g id="Group_3905" class="cls-3" transform="translate(27.152 31.141)">
                        <path id="Path_2102" d="M421.61 307.724c-1.432-2.3.814-4.08.535-6.03a3.61 3.61 0 0 1 2.425-3.854 2.709 2.709 0 0 0 1.95-3.055c-.06-1.734 1.474-3.154 2.467-3.678a10.089 10.089 0 0 0 5.126-4.087c2.107-3.132 7.38-2.691 7.38-2.691s1.284 5.133-1.465 7.715a10.1 10.1 0 0 0-3.209 5.719c-.356 1.064-1.509 2.806-3.23 3.027a2.708 2.708 0 0 0-2.7 2.418 3.613 3.613 0 0 1-3.413 3.016c-1.971.04-3.368 2.543-5.866 1.5z" class="cls-4" transform="translate(-421.128 -284.308)"/>
                        <path id="Line_284" d="M0 23.394L19.882 0" class="cls-4" transform="translate(.482 .021)"/>
                    </g>
                </g>
                <path id="Path_2103" d="M428.4 324.76h-23.435l-3.782-20.56h31z" class="cls-5" transform="translate(-393.712 -250.927)"/>
            </g>
            <g id="Group_13789" transform="translate(175.104 50.193)">
                <g id="Group_13788">
                    <g id="Group_13787" transform="translate(48.672)">
                        <g id="Group_13786">
                            <path id="Rectangle_2602" d="M0 0H122.628V154.953H0z" class="cls-6" transform="rotate(-.108 122.55 .115)"/>
                            <g id="Group_13784" transform="translate(12.689 52.542)">
                                <path id="Rectangle_2603" d="M0 0H80.23V1.98H0z" class="cls-5" transform="rotate(-.108 87.117 -7437.233)"/>
                                <path id="Rectangle_2604" d="M0 0H94.268V1.98H0z" class="cls-5" transform="rotate(-.108 5635.144 5.311)"/>
                                <path id="Rectangle_2605" d="M0 0H94.268V1.98H0z" class="cls-5" transform="rotate(-.108 11938.75 -.42)"/>
                                <path id="Rectangle_2606" d="M0 0H94.268V1.98H0z" class="cls-5" transform="rotate(-.108 18826.456 -7.19)"/>
                            </g>
                            <g id="Group_13785" transform="translate(12.761 101.004)">
                                <path id="Rectangle_2607" d="M0 0H59.331V1.98H0z" class="cls-5" transform="rotate(-.108 6340.212 -5.696)"/>
                                <path id="Rectangle_2608" d="M0 0H59.331V1.98H0z" class="cls-5" transform="rotate(-.108 59.418 .056)"/>
                                <path id="Rectangle_2609" d="M0 0H94.268V1.98H0z" class="cls-5" transform="rotate(-.108 11880.934 -11.084)"/>
                                <path id="Rectangle_2610" d="M0 0H94.268V1.98H0z" class="cls-5" transform="rotate(-.108 18185.07 -16.814)"/>
                                <path id="Rectangle_2611" d="M0 0H94.268V1.98H0z" class="cls-5" transform="rotate(-.108 25072.246 -23.586)"/>
                            </g>
                            <path id="Rectangle_2612" d="M0 0H97.628V30.667H0z" class="cls-5" transform="rotate(-.108 6594.498 -6376.432)"/>
                            <path id="Rectangle_2613" d="M0 0H29.308V28.596H0z" class="cls-5" transform="rotate(-.108 53035.926 -40700.601)"/>
                        </g>
                    </g>
                    <path id="Path_10402" d="M421.243 361.971V351.59a10.494 10.494 0 0 0-10.494-10.495h-51.5a10.5 10.5 0 0 0-10.494 10.495v135.04a10.494 10.494 0 0 0 10.494 10.495h177.615a10.494 10.494 0 0 0 10.495-10.495V382.96a10.494 10.494 0 0 0-10.495-10.495H431.738a10.5 10.5 0 0 1-10.495-10.494z" class="cls-7" transform="translate(-348.757 -260.029)"/>
                </g>
            </g>
            <g id="Group_13790" transform="translate(321.093 70.679)">
                <g id="Character">
                    <g id="Group_12735">
                        <g id="Group_12719" transform="translate(48.355 168.106)">
                            <path id="Path_2603" d="M284.218 334.776H166.061a1.679 1.679 0 0 1-1.616-2.132l.037-.135c2.344-8.365 11.026-15.147 19.392-15.147h104.283a1.678 1.678 0 0 1 1.616 2.132l-3.939 14.055a1.678 1.678 0 0 1-1.616 1.227z" class="cls-7" transform="translate(-161.433 -317.363)"/>
                            <g id="Group_12715" transform="translate(107.456 17.413)">
                                <path id="Path_2604" d="M268.938 433.3h4.7l-17.629-101.453h-4.7z" class="cls-7" transform="translate(-251.31 -331.847)"/>
                                <path id="Path_2605" d="M268.938 433.3h4.7l-17.629-101.453h-4.7z" class="cls-8" transform="translate(-251.31 -331.847)"/>
                            </g>
                            <g id="Group_12716" transform="translate(89.828 17.413)">
                                <path id="Path_2606" d="M245.461 433.3h4.7l-8.814-101.458h-4.7z" class="cls-7" transform="translate(-236.647 -331.847)"/>
                                <path id="Path_2607" d="M245.461 433.3h4.7l-8.814-101.458h-4.7z" class="cls-8" transform="translate(-236.647 -331.847)"/>
                            </g>
                            <g id="Group_12717" transform="translate(0 17.413)">
                                <path id="Path_2608" d="M166.628 433.3h-4.7l17.629-101.458h4.7z" class="cls-7" transform="translate(-161.929 -331.847)"/>
                                <path id="Path_2609" d="M166.628 433.3h-4.7l17.629-101.458h4.7z" class="cls-8" transform="translate(-161.929 -331.847)"/>
                            </g>
                            <g id="Group_12718" transform="translate(26.443 17.413)">
                                <path id="Path_2610" d="M188.623 433.3h-4.7l8.814-101.458h4.7z" class="cls-7" transform="translate(-183.924 -331.847)"/>
                                <path id="Path_2611" d="M188.623 433.3h-4.7l8.814-101.458h4.7z" class="cls-8" transform="translate(-183.924 -331.847)"/>
                            </g>
                        </g>
                        <g id="Group_12734">
                            <g id="Group_12733">
                                <ellipse id="Ellipse_64" cx="10.431" cy="11.065" class="cls-9" rx="10.431" ry="11.065" transform="rotate(-9.43 84.901 -745.165)"/>
                                <path id="Path_2612" d="M228.445 197.867s7.37 5.284 16.862-.959c-4.938 1.3-10.406-.791-10.406-.791z" class="cls-9" transform="translate(-100.122 -173.777)"/>
                                <path id="Path_2613" d="M236.852 191.5c.875 5.269-2.207 10.17-6.883 10.946s-9.177-2.866-10.052-8.135 2.207-10.17 6.884-10.946 9.177 2.87 10.051 8.135z" class="cls-6" transform="translate(-101.877 -176.376)"/>
                                <path id="Path_2614" d="M220.721 219.181c9.351-2.455 20.7-18.036 10.625-33.438-3.812 0-14.251 3.515-14.251 3.515z" class="cls-9" transform="translate(-102.418 -175.875)"/>
                                <path id="Path_2615" d="M200.891 183.82c-7.243 6.4-10.681 23.763 5.571 34.64 3.4-1.717 11.141-9.557 11.141-9.557z" class="cls-9" transform="translate(-106.917 -176.264)"/>
                                <path id="Path_2616" d="M208.231 243.475c-.06 1.759-.133 3.273-.274 4.879q-.193 2.377-.45 4.727c-.325 3.141-.765 6.26-1.279 9.365a184.538 184.538 0 0 1-4.021 18.452l-1.31 4.546-1.44 4.508a14.148 14.148 0 0 1-3.827 6.111 13.922 13.922 0 0 1-6.3 3.28 23.428 23.428 0 0 1-11.2-.519 36.078 36.078 0 0 1-4.778-1.636 38.613 38.613 0 0 1-4.517-2.2l2.371-5.63c1.295.255 2.777.564 4.166.754 1.411.186 2.8.351 4.161.412a16.605 16.605 0 0 0 7-.814 3.527 3.527 0 0 0 1.6-1.194 3.369 3.369 0 0 0 .355-.709 3.665 3.665 0 0 0 .147-.446c.022-.083.048-.161.065-.256l.088-.365 1.1-4.309 1-4.334c1.277-5.795 2.309-11.651 3.154-17.527.429-2.937.789-5.885 1.119-8.824.166-1.47.307-2.943.428-4.406.115-1.44.254-2.979.325-4.276z" class="cls-6" transform="translate(-112.177 -164.284)"/>
                                <path id="Path_2617" d="M195.859 234.159c-4.378 2.674-8.878 21.74-8.878 21.74l18.908 9.6s8.06-20.6 4.3-26.115c-3.913-5.736-7.941-9.126-14.33-5.225z" class="cls-10" transform="translate(-108.508 -166.423)"/>
                                <path id="Path_2619" d="M174.824 283.567l-12.17-7.959 1.9 10.736s4.446 2.783 7.168 2.17z" class="cls-6" transform="translate(-113.428 -157.702)"/>
                                <path id="Path_2620" d="M191.8 244.112c.7 10.628 3.012 29.648 9.906 60.94l48.9-2.883c-1.993-19.855-2.74-32.126 4.364-73.533a144.622 144.622 0 0 0-20.927-1.511c-8.252.088-15.01.222-22.205 1.309-3.2.483-6.538 1.128-9.554 1.771a13.3 13.3 0 0 0-10.484 13.907z" class="cls-10" transform="translate(-107.539 -167.508)"/>
                                <path id="Path_2621" d="M211.335 237.806s4.805 6.086 11.351 8.051 8.392-11.38 7.4-18.713c-6.049-1.51-18.751 10.662-18.751 10.662z" class="cls-11" transform="translate(-103.583 -167.529)"/>
                                <path id="Path_2622" d="M211.335 237.806s5.432 5.443 11.977 7.408 7.766-10.737 6.778-18.07c-6.053-1.51-18.755 10.662-18.755 10.662z" class="cls-6" transform="translate(-103.583 -167.529)"/>
                                <path id="Path_2623" d="M213.28 237.588a17.062 17.062 0 0 1-8.959 7.412c-6.411 2.367.416-14.1 5.509-16.76 6.053-1.515 3.45 9.348 3.45 9.348z" class="cls-11" transform="translate(-105.528 -167.311)"/>
                                <path id="Path_2624" d="M213.336 237.588a16.794 16.794 0 0 1-9.3 6.622c-6.545 1.966.756-13.314 5.849-15.974 6.053-1.511 3.451 9.352 3.451 9.352z" class="cls-6" transform="translate(-105.583 -167.311)"/>
                                <path id="Path_2630" d="M227.4 208.663c-.98 7.228-1.765 17.72 3.515 22.193a68.749 68.749 0 0 0-18.679 18.07c-8.52-11.265-3.526-16.76-3.526-16.76 7.855-2.372 7.459-5.59 5.744-11.059z" class="cls-6" transform="translate(-104.408 -171.24)"/>
                                <path id="Path_2632" d="M229.333 196.965c1.9 11.819 2.954 16.781-1.593 24.085-6.838 10.988-21.771 10.735-27.163-.28-4.852-9.914-7.141-27.577 3.23-34.776a16.327 16.327 0 0 1 25.526 10.971z" class="cls-6" transform="translate(-106.587 -176.43)"/>
                                <path id="Path_2633" d="M227.437 182.369c-12.022-8.616-41.7-4.963-37.136 5.034 5.482 12.01 14.894 12.331 14.894 12.331s-3.751-1.8-3.673-4.208c8.817-2.739 15.562 2.8 19.369-.813-1.67 6.824 9.284 13.279 9.284 13.279a28.714 28.714 0 0 0 7.213-9.664c2.593-5.895.535-15.628-9.951-15.959z" class="cls-9" transform="translate(-107.932 -177.535)"/>
                                <g id="Group_12727" transform="translate(0 134.661)">
                                    <path id="Path_2642" d="M151.026 412.735l-10.635-4.714 10.332-27.1 10.635 4.714z" class="cls-6" transform="translate(-117.93 -271.065)"/>
                                    <path id="Path_2643" d="M143.764 401.618l12.833 4.353a.954.954 0 0 1 .647 1.089l-1.983 10.649a1.937 1.937 0 0 1-2.52 1.41c-4.448-1.6-6.515-2.588-12.158-4.5-3.472-1.178-10.869-2.4-15.664-4.027-4.689-1.591-3.441-6.454-1.3-6.206 9.606 1.112 14.123-1.2 18-2.71a3.144 3.144 0 0 1 2.145-.058z" class="cls-10" transform="translate(-121.708 -266.912)"/>
                                    <g id="Group_12726" transform="translate(26.45)">
                                        <path id="Path_2645" d="M234.789 291.049s-65.635 4.714-68.228 26.977c-4.412 37.884-22.852 90.229-22.852 90.229l14.82 6.279s27.4-50.4 35.013-83.306c12.709-7.189 76.027 18.564 66.788-41.684z" class="cls-9" transform="translate(-143.709 -289.544)"/>
                                    </g>
                                </g>
                                <g id="Group_12730" transform="translate(13.864 136.173)">
                                    <path id="Path_2649" d="M179.406 383.1l-9.97 5.993-16.236-24.035 9.97-5.993z" class="cls-6" transform="translate(-129.204 -276.997)"/>
                                    <path id="Path_2650" d="M166.6 384.617l10.938-8a.955.955 0 0 1 1.263.1l7.575 7.744a1.936 1.936 0 0 1-.295 2.872c-3.862 2.723-5.862 3.843-10.672 7.361-2.96 2.164-8.211 7.515-12.3 10.5-4 2.923-7.259-.893-5.825-2.5 6.43-7.221 7.133-12.246 8.125-16.284a3.151 3.151 0 0 1 1.191-1.793z" class="cls-10" transform="translate(-128.446 -273.487)"/>
                                    <g id="Group_12729">
                                        <path id="Path_2652" d="M207.508 292.173s-69.311-3.188-73.342 18.861c-6.861 37.517 26.668 78.11 26.668 78.11l13.655-8.519s-10.326-28.84-14.256-54.668c13.149-6.349 83.815 25.565 78.5-35.154z" class="cls-9" transform="translate(-133.24 -290.802)"/>
                                    </g>
                                </g>
                                <path id="Union_6" d="M25.643 53.95a94.426 94.426 0 0 1-14.418-1.71c-3.681 1.3-8.421-.028-8.421-.028L0 40.271l9.176 4.656a144.692 144.692 0 0 0 16.3-.136 41.791 41.791 0 0 0 8.972-1.517 9.844 9.844 0 0 0 3.05-1.429 1.365 1.365 0 0 0 .472-.545c.022-.1-.022-.07-.032-.123L37.4 37.88c-.258-1.607-.6-3.2-.893-4.806-.668-3.191-1.445-6.353-2.286-9.5-.867-3.137-1.859-6.24-2.945-9.292-.521-1.535-1.084-3.049-1.674-4.541L28.7 7.534c-.286-.706-.632-1.5-.877-2.039L38.866 0c.5 1 .847 1.764 1.234 2.627.371.843.714 1.684 1.049 2.525.669 1.685 1.3 3.37 1.88 5.068 1.146 3.4 2.1 6.854 2.962 10.323s1.495 6.994 2.032 10.526c.239 1.772.487 3.543.641 5.325l.236 2.671.06.72c.019.373.04.736.04 1.116a12.357 12.357 0 0 1-.257 2.378 11.08 11.08 0 0 1-2.1 4.513 12.552 12.552 0 0 1-3.278 2.908 20.274 20.274 0 0 1-6.378 2.459 43.043 43.043 0 0 1-8.868.832c-.831 0-1.655-.016-2.476-.041z" class="cls-6" transform="translate(114.571 73.604)"/>
                                <path id="Path_2660" d="M246.461 228.409c4.988 1.2 11.866 17.725 11.866 17.725l-15.42 13.993s-10.548-12.956-8.863-19.41c1.756-6.722 6.727-13.678 12.417-12.308z" class="cls-10" transform="translate(-99.027 -167.282)"/>
                                <path id="Path_2661" d="M208.731 274.212l2.889 9.87 9.865.112-2.8-11.941z" class="cls-6" transform="translate(-104.109 -158.38)"/>
                                <g id="Group_12731" transform="translate(49.135 96.486)">
                                    <path id="Path_2662" d="M227.259 304.257H176.7a8.533 8.533 0 0 1-8.016-6.779l-6-32.906a5.51 5.51 0 0 1 5.543-6.781h50.555a8.531 8.531 0 0 1 8.015 6.781l6 32.906a5.51 5.51 0 0 1-5.538 6.779z" class="cls-6" transform="translate(-162.578 -257.791)"/>
                                    <path id="Path_2663" fill="#fff" stroke="#16272a" d="M226.356 304.257H176.7a8.533 8.533 0 0 1-8.016-6.779l-6-32.906a5.51 5.51 0 0 1 5.543-6.781h49.652a8.53 8.53 0 0 1 8.015 6.781l6 32.906a5.51 5.51 0 0 1-5.538 6.779z" opacity="0.5" transform="translate(-162.578 -257.791)"/>
                                </g>
                                <g id="Group_12732" transform="translate(49.226 115.239)">
                                    <path id="Path_2664" d="M162.654 276.057l1.9 10.736 4.181-3.917-1.122-7.993a1.732 1.732 0 0 0-2.98-.943z" class="cls-6" transform="translate(-162.654 -273.389)"/>
                                </g>
                            </g>
                        </g>
                    </g>
                </g>
                <g id="Group_12919" transform="translate(76.548 116.14)">
                    <g id="Group_12918">
                        <g id="Group_12917">
                            <g id="Group_12916">
                                <g id="Group_12915">
                                    <g id="Group_12914">
                                        <g id="Group_12913">
                                            <g id="Group_12912">
                                                <path id="Path_10299" fill="#e2f4f7" stroke="#16272a" d="M1322.45 259.117a6.187 6.187 0 0 0 5.977 5.336 4.636 4.636 0 0 0 4.748-4.522 4.582 4.582 0 0 0-.053-.815 6.186 6.186 0 0 0-5.977-5.336 4.637 4.637 0 0 0-4.7 5.336z" transform="translate(-1322.397 -253.779)"/>
                                            </g>
                                        </g>
                                    </g>
                                </g>
                            </g>
                        </g>
                    </g>
                </g>
            </g>
            <g id="Group_13791" transform="translate(630.647 159.6)">
                <g id="Group_3906-2">
                    <g id="Group_3902-2" class="cls-3" transform="translate(26.215)">
                        <path id="Path_2099-2" d="M415.9 291.125c-2.9-1.994-1.144-5.285-2.487-7.465a4.7 4.7 0 0 1 .894-5.852 3.52 3.52 0 0 0 .742-4.652c-.97-2.036.124-4.522 1.035-5.661a13.1 13.1 0 0 0 3.992-7.528c.889-4.824 7.4-7.03 7.4-7.03s4.192 5.453 2.252 9.958a13.1 13.1 0 0 0-.861 8.477c.126 1.453-.346 4.128-2.283 5.283a3.518 3.518 0 0 0-1.966 4.279 4.7 4.7 0 0 1-2.507 5.364c-2.325 1.068-2.696 4.778-6.211 4.827z" class="cls-4" transform="translate(-412.739 -252.938)"/>
                        <path id="Line_263-2" d="M0 38.188L11.58 0" class="cls-4" transform="translate(3.158)"/>
                    </g>
                    <g id="Group_3903-2" class="cls-3" transform="translate(3.67 1.731)">
                        <path id="Path_2100-2" d="M416.4 306.472c3.957-2.671 1.621-7.158 3.47-10.1s.707-5.987-1.14-7.952-2.288-3.572-.947-6.321-.11-6.138-1.333-7.7-4.178-3.711-5.322-10.266-9.955-9.635-9.955-9.635-5.756 7.347-3.182 13.484 1.25 9.547 1.061 11.516.417 5.607 3.03 7.2 3.105 3.18 2.614 5.833.188 5.834 3.333 7.311 3.6 6.517 8.371 6.63z" class="cls-4" transform="translate(-397.33 -254.503)"/>
                        <path id="Line_270-2" d="M15.227 51.969L0 0" class="cls-4" transform="translate(3.844)"/>
                    </g>
                    <g id="Group_3904-2" class="cls-3" transform="translate(0 38.188)">
                        <path id="Path_2101-2" d="M405.886 300.753c1.006-1.613-.572-2.865-.376-4.235a2.535 2.535 0 0 0-1.7-2.707 1.9 1.9 0 0 1-1.369-2.146 3.156 3.156 0 0 0-1.733-2.583 7.089 7.089 0 0 1-3.6-2.87c-1.479-2.2-5.182-1.89-5.182-1.89s-.9 3.6 1.028 5.418a7.09 7.09 0 0 1 2.254 4.017 3.154 3.154 0 0 0 2.268 2.126 1.9 1.9 0 0 1 1.9 1.7 2.538 2.538 0 0 0 2.4 2.118c1.374.026 2.355 1.785 4.11 1.052z" class="cls-4" transform="translate(-391.712 -284.308)"/>
                        <path id="Line_277-2" d="M13.963 16.43L0 0" class="cls-4" transform="translate(.21 .015)"/>
                    </g>
                    <g id="Group_3905-2" class="cls-3" transform="translate(27.152 31.141)">
                        <path id="Path_2102-2" d="M421.61 307.724c-1.432-2.3.814-4.08.535-6.03a3.61 3.61 0 0 1 2.425-3.854 2.709 2.709 0 0 0 1.95-3.055c-.06-1.734 1.474-3.154 2.467-3.678a10.089 10.089 0 0 0 5.126-4.087c2.107-3.132 7.38-2.691 7.38-2.691s1.284 5.133-1.465 7.715a10.1 10.1 0 0 0-3.209 5.719c-.356 1.064-1.509 2.806-3.23 3.027a2.708 2.708 0 0 0-2.7 2.418 3.613 3.613 0 0 1-3.413 3.016c-1.971.04-3.368 2.543-5.866 1.5z" class="cls-4" transform="translate(-421.128 -284.308)"/>
                        <path id="Line_284-2" d="M0 23.394L19.882 0" class="cls-4" transform="translate(.482 .021)"/>
                    </g>
                </g>
                <path id="Path_2103-2" d="M428.4 324.76h-23.435l-3.782-20.56h31z" class="cls-5" transform="translate(-393.712 -250.927)"/>
            </g>
        </g>
    </g>
</svg>
